<svg width="2000" height="2000" viewBox="0 0 2000 2000" fill="none" xmlns="http://www.w3.org/2000/svg">
<path d="M1716.96 1042.34C1341.23 823.246 734.223 823.246 360.699 1042.34C-12.8256 1261.42 -10.6602 1616.59 364.863 1835.68C740.386 2054.77 1347.89 2054.77 1721.21 1835.68C2094.53 1616.59 2092.74 1261.55 1716.96 1042.34Z" fill="#F5F5F5"/>
<path d="M199.588 1504.27C227.363 1488.04 272.294 1488.04 299.902 1504.27C327.511 1520.51 327.344 1546.75 299.569 1562.94C271.794 1579.13 226.863 1579.17 199.255 1562.94C171.646 1546.7 171.771 1520.46 199.588 1504.27Z" fill="#E0E0E0"/>
<path d="M1828.56 1388.55C1857.71 1371.73 1904.81 1371.73 1933.79 1388.55C1962.77 1405.37 1962.56 1433.08 1933.46 1450.07C1904.35 1467.06 1857.17 1466.89 1828.23 1450.07C1799.29 1433.25 1799.41 1405.54 1828.56 1388.55Z" fill="#E0E0E0"/>
<path d="M1368.8 1096.04L301.276 1725.55L256.054 1699.18L1323.58 1069.67L1368.8 1096.04Z" fill="#E0E0E0"/>
<path d="M1652.63 1429.76C1548.52 1369.08 1380.42 1369.08 1277.06 1429.76C1185.7 1483.33 1175.58 1566.34 1246.21 1626.81C1189.2 1623.24 1130.15 1634.21 1086.64 1659.74C1010.22 1704.57 1010.64 1777.27 1087.51 1822.1C1164.38 1866.93 1288.68 1866.93 1365.05 1822.1C1425.85 1786.44 1437.97 1733.12 1401.65 1690.27C1489.1 1702.88 1585.63 1689.47 1653.83 1649.44C1757.27 1588.88 1756.69 1490.52 1652.63 1429.76Z" fill="#E0E0E0"/>
<path d="M475.088 392.216L475.421 504.957L488.955 512.905L488.58 384.353L475.088 392.216Z" fill="#F0F0F0"/>
<path d="M329.343 590.154L329.384 605.965L488.955 512.905L475.421 504.957L329.343 590.154Z" fill="#F5F5F5"/>
<path d="M504.903 355.884L312.603 467.993L313.061 634.476L505.362 522.366L504.903 355.884ZM329.384 605.965V590.154L328.968 477.413L475.047 392.216L488.538 384.353L488.913 512.905L329.384 605.965Z" fill="#E0E0E0"/>
<path d="M504.904 355.884L491.37 347.936L299.069 460.046L312.603 467.993L504.904 355.884Z" fill="#F5F5F5"/>
<path d="M299.069 460.046L299.528 626.528L313.061 634.476L312.603 467.993L299.069 460.046Z" fill="#F0F0F0"/>
<path d="M1622.56 713.029L1622.23 825.811L1608.7 833.717L1609.07 705.165L1622.56 713.029Z" fill="#F0F0F0"/>
<path d="M1768.35 910.966L1768.31 926.778L1608.7 833.717L1622.23 825.811L1768.35 910.966Z" fill="#F5F5F5"/>
<path d="M1592.33 843.179L1784.59 955.289L1785.05 788.806L1592.79 676.696L1592.33 843.179ZM1608.74 833.717L1609.07 705.165L1622.56 713.029L1768.64 798.226L1768.35 910.966V926.778L1608.74 833.717Z" fill="#E0E0E0"/>
<path d="M1592.79 676.696L1606.32 668.748L1798.58 780.858L1785.05 788.806L1592.79 676.696Z" fill="#F5F5F5"/>
<path d="M1798.58 780.858L1798.12 947.341L1784.59 955.289L1785.05 788.806L1798.58 780.858Z" fill="#F0F0F0"/>
<path d="M761.165 507.816V480.441L759.916 481.156L757.667 482.501C737.638 494.738 717.525 513.914 698.828 534.687C695.705 538.094 692.665 541.584 689.625 545.074C673.843 563.325 658.436 582.668 642.529 600.751V644.989L661.642 633.845C686.551 585.809 720.333 543.029 761.165 507.816Z" fill="#EBEBEB"/>
<path d="M761.374 575.73V539.145C744.76 556.969 731.043 577.336 720.732 599.489L761.374 575.73Z" fill="#EBEBEB"/>
<path d="M720.607 599.489C730.918 577.336 744.635 556.969 761.249 539.145V507.816C720.419 543.071 686.65 585.893 661.767 633.971L720.69 599.615L720.607 599.489Z" fill="#FAFAFA"/>
<path d="M680.631 470.096L683.421 469.129C688.529 467.279 693.692 465.134 698.911 462.695L700.827 461.77L706.074 459.163C709.113 457.607 712.112 455.967 715.152 454.243C712.112 455.967 709.113 457.607 706.074 459.163L707.198 458.616C709.821 457.228 712.486 455.756 715.152 454.411L716.859 453.444L718.275 452.602C732.72 444 746.402 434.151 759.167 423.166L760.916 421.61V375.354C731.766 390.366 703.242 395.034 680.173 387.969C664.192 382.717 650.583 371.896 641.779 357.439L642.112 477.665C655.241 476.99 668.209 474.441 680.631 470.096Z" fill="#FAFAFA"/>
<path d="M698.745 534.687C717.442 513.914 737.555 494.738 757.584 482.501L759.833 481.156L761.082 480.441V453.948C722.204 476.997 686.181 504.637 653.772 536.285C649.899 540.028 646.027 543.813 642.154 547.471V600.751C658.061 582.668 673.468 563.325 689.251 545.074C692.582 541.584 695.622 538.262 698.745 534.687Z" fill="#FAFAFA"/>
<path d="M760.999 454.158V421.526L759.25 423.082C746.485 434.067 732.804 443.916 718.358 452.518L716.942 453.359L715.235 454.327C712.57 455.84 709.905 457.312 707.281 458.532L706.157 459.078L705.449 459.457L706.157 459.078L700.91 461.686L698.995 462.611C693.803 465.05 688.64 467.194 683.504 469.045L686.419 467.951L683.504 469.045L680.714 470.012C668.299 474.4 655.33 476.991 642.196 477.707L642.404 547.387C646.276 543.729 650.149 539.944 654.022 536.201C686.343 504.678 722.253 477.138 760.999 454.158Z" fill="#EBEBEB"/>
<path d="M760.707 337.633V303.403C742.343 299.198 728.102 285.573 720.607 265.346L680.006 289.021C687.118 304.332 698.604 317.142 712.986 325.805C727.368 334.469 743.988 338.588 760.707 337.633Z" fill="#FAFAFA"/>
<path d="M680.048 387.506C703.117 394.739 731.725 390.072 760.791 374.891V337.465C744.051 338.445 727.404 334.339 712.997 325.674C698.59 317.009 687.085 304.184 679.964 288.853L641.654 311.183V357.439C650.539 371.722 664.138 382.372 680.048 387.506Z" fill="#EBEBEB"/>
<path d="M767.079 230.401L634.908 307.482L635.908 656.511L768.078 579.473L767.079 230.401ZM642.57 644.989V600.751V547.471L642.362 477.791L641.779 357.439V311.183L680.006 288.895L720.398 265.346L760.333 242.05V303.403V337.633V375.059V421.316V453.948V480.441V507.816V539.145V575.73L719.566 599.489L660.643 633.845L642.57 644.989Z" fill="white"/>
<path d="M760.582 303.403V242.05L720.398 265.346C727.977 285.573 742.219 299.072 760.582 303.403Z" fill="#EBEBEB"/>
<path d="M768.078 579.557L635.908 656.637V665.931L775.99 584.224L768.078 579.557Z" fill="#CACACA"/>
<path d="M767.079 230.401L768.078 579.557L775.99 584.224L774.99 225.818L767.079 230.401Z" fill="#F0F0F0"/>
<path d="M796.269 188.644L613.505 295.161L614.671 703.062L797.394 596.503L796.269 188.644ZM635.908 665.931V656.637L634.908 307.608L767.079 230.527L774.99 225.944L776.031 584.351L635.908 665.931Z" fill="#E0E0E0"/>
<path d="M796.269 188.644L781.195 180.444L598.472 287.003L613.546 295.161L796.269 188.644Z" fill="#F5F5F5"/>
<path d="M598.472 287.003L599.596 694.904L614.671 703.062L613.546 295.161L598.472 287.003Z" fill="#F0F0F0"/>
<path d="M428.699 435.025L468.509 466.69L468.592 497.64L336.089 574.931L336.005 543.981L361.282 493.309L383.935 511.096L375.94 536.243L387.558 513.914L428.699 435.025Z" fill="#E0E0E0"/>
<path d="M385.142 450.626C391.389 447.01 396.469 449.911 396.511 457.144C396.286 461.088 395.148 464.923 393.188 468.341C391.228 471.759 388.501 474.665 385.226 476.824C378.98 480.483 373.941 477.539 373.899 470.306C374.119 466.367 375.25 462.534 377.203 459.116C379.156 455.698 381.875 452.79 385.142 450.626Z" fill="#E0E0E0"/>
<path d="M1668.99 755.837L1629.14 787.544L1629.06 818.494L1761.56 895.743L1761.64 864.793L1736.41 814.121L1713.72 831.909L1721.75 857.056L1710.09 834.726L1668.99 755.837Z" fill="#E0E0E0"/>
<path d="M1712.51 771.438C1706.26 767.822 1701.18 770.724 1701.18 777.957C1701.39 781.904 1702.52 785.745 1704.48 789.17C1706.43 792.596 1709.15 795.511 1712.42 797.679C1718.67 801.295 1723.75 798.394 1723.75 791.119C1723.55 787.174 1722.43 783.334 1720.47 779.913C1718.52 776.492 1715.79 773.588 1712.51 771.438Z" fill="#E0E0E0"/>
<path d="M182.265 1411L249.558 1413.02L316.85 1411C319.765 1456.92 310.896 1503.52 298.653 1526.52C295.752 1532.39 291.088 1537.19 285.328 1540.23C265.423 1551.71 233.193 1551.71 213.621 1540.23C207.776 1537.15 203.095 1532.21 200.296 1526.18C188.178 1503.18 179.392 1456.67 182.265 1411Z" fill="white"/>
<path d="M202.128 1383.21C175.769 1398.56 175.644 1423.49 201.837 1438.84C228.029 1454.19 270.628 1454.23 296.987 1438.84C323.346 1423.45 323.513 1398.56 297.321 1383.21C271.128 1367.86 228.529 1367.82 202.128 1383.21Z" fill="#EBEBEB"/>
<path d="M212.58 1389.3C192.009 1401.29 191.759 1420.76 212.33 1432.74C232.901 1444.73 266.006 1444.73 286.577 1432.74C307.148 1420.76 307.398 1401.29 286.827 1389.3C266.256 1377.32 233.193 1377.32 212.58 1389.3Z" fill="#E0E0E0"/>
<g opacity="0.15">
<path d="M212.58 1389.3C192.009 1401.29 191.759 1420.76 212.33 1432.74C232.901 1444.73 266.006 1444.73 286.577 1432.74C307.148 1420.76 307.398 1401.29 286.827 1389.3C266.256 1377.32 233.193 1377.32 212.58 1389.3Z" fill="black"/>
</g>
<path d="M138.916 1121.06C290.574 1171.18 291.949 1273.62 257.761 1346.58C249.141 1361.38 223.032 1369.29 200.337 1278.54L240.188 1283.71L193.758 1259.95L181.682 1223.7L220.409 1226.61L171.272 1205.58C162.216 1176.76 151.41 1148.53 138.916 1121.06Z" fill="#22BC50"/>
<path opacity="0.2" d="M138.916 1121.06C290.574 1171.18 291.949 1273.62 257.761 1346.58C249.141 1361.38 223.032 1369.29 200.337 1278.54L240.188 1283.71L193.758 1259.95L181.682 1223.7L220.409 1226.61L171.272 1205.58C162.216 1176.76 151.41 1148.53 138.916 1121.06Z" fill="black"/>
<path opacity="0.2" d="M138.916 1121.06C290.574 1171.18 291.949 1273.62 257.761 1346.58C249.141 1361.38 223.032 1369.29 200.337 1278.54L240.188 1283.71L193.758 1259.95L181.682 1223.7L220.409 1226.61L171.272 1205.58C162.216 1176.76 151.41 1148.53 138.916 1121.06Z" fill="white"/>
<path d="M181.807 1146.67C261.8 1207.98 269.004 1278.37 246.435 1351.58C254.43 1286.99 263.05 1221.69 181.807 1146.67Z" fill="white"/>
<path d="M395.803 1225.13C246.31 1246.37 228.154 1341.53 248.017 1415.25C253.597 1430.43 276.583 1442.21 312.686 1361.51L274.834 1359.62L321.972 1345.28L339.17 1313.4L302.651 1309.62L351.829 1298.43C364.964 1273.1 379.65 1248.62 395.803 1225.13Z" fill="#22BC50"/>
<path opacity="0.2" d="M395.803 1225.13C246.31 1246.37 228.154 1341.53 248.017 1415.25C253.597 1430.43 276.583 1442.21 312.686 1361.51L274.834 1359.62L321.972 1345.28L339.17 1313.4L302.651 1309.62L351.829 1298.43C364.964 1273.1 379.65 1248.62 395.803 1225.13Z" fill="white"/>
<path opacity="0.1" d="M395.803 1225.13C246.31 1246.37 228.154 1341.53 248.017 1415.25C253.597 1430.43 276.583 1442.21 312.686 1361.51L274.834 1359.62L321.972 1345.28L339.17 1313.4L302.651 1309.62L351.829 1298.43C364.964 1273.1 379.65 1248.62 395.803 1225.13Z" fill="black"/>
<path d="M351.621 1241.79C267.047 1285.44 248.766 1349.86 257.761 1421.81C260.926 1360.29 263.633 1298.01 351.621 1241.79Z" fill="white"/>
<path d="M95.1925 1260.79C232.276 1263.07 259.177 1346.79 249.266 1415.42C245.935 1429.76 226.488 1442.96 185.055 1374.33L219.034 1368.32L174.936 1360.75L155.906 1333.96L188.386 1326.44L142.83 1321.9C128.209 1300.56 112.3 1280.15 95.1925 1260.79Z" fill="#22BC50"/>
<path d="M136.834 1270.8C217.868 1300.62 241.521 1356.42 241.521 1422.44C231.693 1367.4 222.366 1311.55 136.834 1270.8Z" fill="white"/>
<path opacity="0.2" d="M95.1925 1260.79C232.276 1263.07 259.177 1346.79 249.266 1415.42C245.935 1429.76 226.488 1442.96 185.055 1374.33L219.034 1368.32L174.936 1360.75L155.906 1333.96L188.386 1326.44L142.83 1321.9C128.209 1300.56 112.3 1280.15 95.1925 1260.79Z" fill="white"/>
<path d="M1810.45 1290.73L1880.99 1292.84L1951.78 1290.73C1954.82 1338.88 1945.53 1387.92 1932.71 1411.89C1929.68 1418.04 1924.79 1423.06 1918.76 1426.23C1897.94 1438.38 1864.29 1438.38 1843.8 1426.23C1837.67 1423.01 1832.77 1417.84 1829.85 1411.51C1816.61 1387.41 1807.24 1338.63 1810.45 1290.73Z" fill="white"/>
<path d="M1831.27 1261.55C1803.62 1277.7 1803.45 1303.81 1830.94 1319.96C1858.42 1336.11 1903.1 1336.07 1930.88 1319.96C1958.65 1303.86 1958.65 1277.7 1931.21 1261.55C1903.77 1245.4 1858.92 1245.45 1831.27 1261.55Z" fill="#EBEBEB"/>
<path d="M1842.22 1267.99C1820.65 1280.6 1820.53 1300.95 1841.93 1313.53C1863.33 1326.1 1898.23 1326.14 1919.8 1313.53C1941.37 1300.91 1941.49 1280.56 1920.05 1267.99C1898.6 1255.41 1863.79 1255.41 1842.22 1267.99Z" fill="#E0E0E0"/>
<g opacity="0.15">
<path d="M1842.22 1267.99C1820.65 1280.6 1820.53 1300.95 1841.93 1313.53C1863.33 1326.1 1898.23 1326.14 1919.8 1313.53C1941.37 1300.91 1941.49 1280.56 1920.05 1267.99C1898.6 1255.41 1863.79 1255.41 1842.22 1267.99Z" fill="black"/>
</g>
<path d="M1917.01 1144.9C1928.46 1130.52 1941.79 1117.61 1952.32 1102.47C1959.53 1092.12 1965.52 1079.51 1962.48 1067.27C1960.8 1061.65 1957.6 1056.61 1953.24 1052.72C1948.88 1048.84 1943.52 1046.26 1937.79 1045.28C1926.15 1043.51 1914.27 1046.18 1904.48 1052.76C1894.84 1059.29 1886.39 1067.44 1879.49 1076.86C1839.77 1127.67 1820.98 1191.98 1827.02 1256.42C1827.17 1263.8 1829.46 1270.98 1833.6 1277.07C1836.12 1280.08 1839.45 1282.3 1843.19 1283.45C1846.92 1284.61 1850.91 1284.66 1854.67 1283.59C1873.91 1277.83 1871.33 1251.58 1874.49 1236.19C1881.26 1202.79 1895.81 1171.5 1916.93 1144.9H1917.01Z" fill="#22BC50"/>
<path opacity="0.2" d="M1917.01 1144.9C1928.46 1130.52 1941.79 1117.61 1952.32 1102.47C1959.53 1092.12 1965.52 1079.51 1962.48 1067.27C1960.8 1061.65 1957.6 1056.61 1953.24 1052.72C1948.88 1048.84 1943.52 1046.26 1937.79 1045.28C1926.15 1043.51 1914.27 1046.18 1904.48 1052.76C1894.84 1059.29 1886.39 1067.44 1879.49 1076.86C1839.77 1127.67 1820.98 1191.98 1827.02 1256.42C1827.17 1263.8 1829.46 1270.98 1833.6 1277.07C1836.12 1280.08 1839.45 1282.3 1843.19 1283.45C1846.92 1284.61 1850.91 1284.66 1854.67 1283.59C1873.91 1277.83 1871.33 1251.58 1874.49 1236.19C1881.26 1202.79 1895.81 1171.5 1916.93 1144.9H1917.01Z" fill="white"/>
<path d="M1853.55 1264.03C1853.92 1263.96 1854.26 1263.76 1854.51 1263.47C1854.75 1263.18 1854.9 1262.82 1854.92 1262.43C1856.25 1231.27 1866.29 1124.93 1938.87 1064.79C1939.05 1064.65 1939.19 1064.48 1939.3 1064.28C1939.41 1064.09 1939.47 1063.87 1939.5 1063.65C1939.52 1063.42 1939.5 1063.2 1939.43 1062.98C1939.37 1062.77 1939.26 1062.57 1939.12 1062.39C1938.84 1062.05 1938.43 1061.83 1937.99 1061.78C1937.54 1061.73 1937.1 1061.86 1936.75 1062.14C1863.08 1123.41 1852.92 1230.98 1851.55 1262.52C1851.54 1262.97 1851.7 1263.41 1852 1263.74C1852.31 1264.07 1852.73 1264.26 1853.17 1264.28L1853.55 1264.03Z" fill="#F0F0F0"/>
<path d="M1842.97 1267.44C1844.5 1274.25 1847.37 1280.69 1851.42 1286.35C1855.47 1292.02 1860.62 1296.8 1866.54 1300.41C1877.64 1305.72 1889.98 1307.82 1902.18 1306.46C1914.56 1305.03 1926.72 1302.12 1938.41 1297.8C1944.2 1295.82 1950.7 1293.13 1951.32 1285.86C1951.42 1283.94 1951.1 1282.03 1950.38 1280.25C1949.66 1278.48 1948.56 1276.89 1947.16 1275.6C1945.97 1274.44 1944.71 1273.34 1943.41 1272.32C1942.81 1271.86 1942.35 1271.23 1942.12 1270.5C1941.88 1269.78 1941.86 1269 1942.08 1268.27C1942.29 1267.53 1942.72 1266.89 1943.31 1266.41C1943.89 1265.93 1944.61 1265.64 1945.37 1265.59C1948.83 1265.36 1952.28 1264.93 1955.69 1264.28C1963.65 1262.99 1971.13 1259.58 1977.35 1254.4C1981.88 1250.34 1985.33 1245.19 1987.38 1239.43C1989.13 1234.55 1989.63 1228.41 1985.93 1224.76C1983.65 1222.84 1980.87 1221.61 1977.93 1221.22C1975.35 1220.68 1972.77 1220.17 1970.14 1219.75C1969.41 1219.63 1968.73 1219.26 1968.22 1218.72C1967.71 1218.17 1967.38 1217.47 1967.29 1216.73C1967.2 1215.98 1967.36 1215.22 1967.73 1214.57C1968.1 1213.92 1968.67 1213.41 1969.35 1213.11L1980.3 1208.52C1983.46 1207.49 1986.31 1205.7 1988.63 1203.31C1990.06 1201.08 1991 1198.57 1991.36 1195.94C1991.73 1193.31 1991.52 1190.63 1990.76 1188.09C1989.42 1181.15 1987.05 1174.5 1985.43 1167.61C1983.51 1160.76 1983.27 1153.55 1984.72 1146.58C1964.19 1144.29 1943.42 1145.71 1923.38 1150.79C1917.38 1152.06 1911.71 1154.58 1906.72 1158.19C1899.89 1163.7 1898.15 1171.98 1898.85 1180.94C1898.86 1181.29 1898.76 1181.64 1898.55 1181.93C1898.34 1182.22 1898.04 1182.43 1897.7 1182.53C1897.36 1182.62 1897 1182.6 1896.67 1182.47C1896.34 1182.33 1896.07 1182.09 1895.9 1181.78L1888.82 1169.04C1887.79 1167.15 1886.09 1165.73 1884.06 1165.08C1882.03 1164.42 1879.83 1164.57 1877.91 1165.51C1871.79 1168.57 1866.35 1172.86 1861.92 1178.12C1859.47 1180.93 1857.6 1184.21 1856.43 1187.77C1855.25 1191.32 1854.8 1195.08 1855.09 1198.81C1855.92 1209.06 1857.62 1219.22 1860.17 1229.17C1860.29 1229.71 1860.25 1230.27 1860.05 1230.78C1859.85 1231.29 1859.51 1231.74 1859.06 1232.05C1858.62 1232.37 1858.09 1232.54 1857.54 1232.55C1857 1232.56 1856.46 1232.41 1856 1232.11L1855.67 1231.9C1853.79 1230.43 1851.42 1229.73 1849.05 1229.97C1842.89 1230.73 1841.3 1237.03 1840.72 1242.59C1840.49 1250.93 1841.25 1259.27 1842.97 1267.44Z" fill="#22BC50"/>
<path opacity="0.2" d="M1842.97 1267.44C1844.5 1274.25 1847.37 1280.69 1851.42 1286.35C1855.47 1292.02 1860.62 1296.8 1866.54 1300.41C1877.64 1305.72 1889.98 1307.82 1902.18 1306.46C1914.56 1305.03 1926.72 1302.12 1938.41 1297.8C1944.2 1295.82 1950.7 1293.13 1951.32 1285.86C1951.42 1283.94 1951.1 1282.03 1950.38 1280.25C1949.66 1278.48 1948.56 1276.89 1947.16 1275.6C1945.97 1274.44 1944.71 1273.34 1943.41 1272.32C1942.81 1271.86 1942.35 1271.23 1942.12 1270.5C1941.88 1269.78 1941.86 1269 1942.08 1268.27C1942.29 1267.53 1942.72 1266.89 1943.31 1266.41C1943.89 1265.93 1944.61 1265.64 1945.37 1265.59C1948.83 1265.36 1952.28 1264.93 1955.69 1264.28C1963.65 1262.99 1971.13 1259.58 1977.35 1254.4C1981.88 1250.34 1985.33 1245.19 1987.38 1239.43C1989.13 1234.55 1989.63 1228.41 1985.93 1224.76C1983.65 1222.84 1980.87 1221.61 1977.93 1221.22C1975.35 1220.68 1972.77 1220.17 1970.14 1219.75C1969.41 1219.63 1968.73 1219.26 1968.22 1218.72C1967.71 1218.17 1967.38 1217.47 1967.29 1216.73C1967.2 1215.98 1967.36 1215.22 1967.73 1214.57C1968.1 1213.92 1968.67 1213.41 1969.35 1213.11L1980.3 1208.52C1983.46 1207.49 1986.31 1205.7 1988.63 1203.31C1990.06 1201.08 1991 1198.57 1991.36 1195.94C1991.73 1193.31 1991.52 1190.63 1990.76 1188.09C1989.42 1181.15 1987.05 1174.5 1985.43 1167.61C1983.51 1160.76 1983.27 1153.55 1984.72 1146.58C1964.19 1144.29 1943.42 1145.71 1923.38 1150.79C1917.38 1152.06 1911.71 1154.58 1906.72 1158.19C1899.89 1163.7 1898.15 1171.98 1898.85 1180.94C1898.86 1181.29 1898.76 1181.64 1898.55 1181.93C1898.34 1182.22 1898.04 1182.43 1897.7 1182.53C1897.36 1182.62 1897 1182.6 1896.67 1182.47C1896.34 1182.33 1896.07 1182.09 1895.9 1181.78L1888.82 1169.04C1887.79 1167.15 1886.09 1165.73 1884.06 1165.08C1882.03 1164.42 1879.83 1164.57 1877.91 1165.51C1871.79 1168.57 1866.35 1172.86 1861.92 1178.12C1859.47 1180.93 1857.6 1184.21 1856.43 1187.77C1855.25 1191.32 1854.8 1195.08 1855.09 1198.81C1855.92 1209.06 1857.62 1219.22 1860.17 1229.17C1860.29 1229.71 1860.25 1230.27 1860.05 1230.78C1859.85 1231.29 1859.51 1231.74 1859.06 1232.05C1858.62 1232.37 1858.09 1232.54 1857.54 1232.55C1857 1232.56 1856.46 1232.41 1856 1232.11L1855.67 1231.9C1853.79 1230.43 1851.42 1229.73 1849.05 1229.97C1842.89 1230.73 1841.3 1237.03 1840.72 1242.59C1840.49 1250.93 1841.25 1259.27 1842.97 1267.44Z" fill="black"/>
<path opacity="0.2" d="M1842.97 1267.44C1844.5 1274.25 1847.37 1280.69 1851.42 1286.35C1855.47 1292.02 1860.62 1296.8 1866.54 1300.41C1877.64 1305.72 1889.98 1307.82 1902.18 1306.46C1914.56 1305.03 1926.72 1302.12 1938.41 1297.8C1944.2 1295.82 1950.7 1293.13 1951.32 1285.86C1951.42 1283.94 1951.1 1282.03 1950.38 1280.25C1949.66 1278.48 1948.56 1276.89 1947.16 1275.6C1945.97 1274.44 1944.71 1273.34 1943.41 1272.32C1942.81 1271.86 1942.35 1271.23 1942.12 1270.5C1941.88 1269.78 1941.86 1269 1942.08 1268.27C1942.29 1267.53 1942.72 1266.89 1943.31 1266.41C1943.89 1265.93 1944.61 1265.64 1945.37 1265.59C1948.83 1265.36 1952.28 1264.93 1955.69 1264.28C1963.65 1262.99 1971.13 1259.58 1977.35 1254.4C1981.88 1250.34 1985.33 1245.19 1987.38 1239.43C1989.13 1234.55 1989.63 1228.41 1985.93 1224.76C1983.65 1222.84 1980.87 1221.61 1977.93 1221.22C1975.35 1220.68 1972.77 1220.17 1970.14 1219.75C1969.41 1219.63 1968.73 1219.26 1968.22 1218.72C1967.71 1218.17 1967.38 1217.47 1967.29 1216.73C1967.2 1215.98 1967.36 1215.22 1967.73 1214.57C1968.1 1213.92 1968.67 1213.41 1969.35 1213.11L1980.3 1208.52C1983.46 1207.49 1986.31 1205.7 1988.63 1203.31C1990.06 1201.08 1991 1198.57 1991.36 1195.94C1991.73 1193.31 1991.52 1190.63 1990.76 1188.09C1989.42 1181.15 1987.05 1174.5 1985.43 1167.61C1983.51 1160.76 1983.27 1153.55 1984.72 1146.58C1964.19 1144.29 1943.42 1145.71 1923.38 1150.79C1917.38 1152.06 1911.71 1154.58 1906.72 1158.19C1899.89 1163.7 1898.15 1171.98 1898.85 1180.94C1898.86 1181.29 1898.76 1181.64 1898.55 1181.93C1898.34 1182.22 1898.04 1182.43 1897.7 1182.53C1897.36 1182.62 1897 1182.6 1896.67 1182.47C1896.34 1182.33 1896.07 1182.09 1895.9 1181.78L1888.82 1169.04C1887.79 1167.15 1886.09 1165.73 1884.06 1165.08C1882.03 1164.42 1879.83 1164.57 1877.91 1165.51C1871.79 1168.57 1866.35 1172.86 1861.92 1178.12C1859.47 1180.93 1857.6 1184.21 1856.43 1187.77C1855.25 1191.32 1854.8 1195.08 1855.09 1198.81C1855.92 1209.06 1857.62 1219.22 1860.17 1229.17C1860.29 1229.71 1860.25 1230.27 1860.05 1230.78C1859.85 1231.29 1859.51 1231.74 1859.06 1232.05C1858.62 1232.37 1858.09 1232.54 1857.54 1232.55C1857 1232.56 1856.46 1232.41 1856 1232.11L1855.67 1231.9C1853.79 1230.43 1851.42 1229.73 1849.05 1229.97C1842.89 1230.73 1841.3 1237.03 1840.72 1242.59C1840.49 1250.93 1841.25 1259.27 1842.97 1267.44Z" fill="white"/>
<path d="M1875.49 1298.72C1879.39 1282.1 1884.97 1265.92 1892.15 1250.45C1892.15 1250.21 1892.21 1249.97 1892.31 1249.76C1892.41 1249.54 1892.55 1249.35 1892.73 1249.19L1893.86 1246.66C1891.86 1227.38 1886.33 1208.64 1877.53 1191.41C1877.38 1191.22 1877.27 1190.99 1877.21 1190.75C1877.15 1190.51 1877.14 1190.26 1877.19 1190.02C1877.23 1189.77 1877.33 1189.54 1877.47 1189.34C1877.61 1189.14 1877.79 1188.97 1878 1188.84C1878.21 1188.72 1878.45 1188.64 1878.69 1188.61C1878.94 1188.59 1879.18 1188.62 1879.42 1188.7C1879.65 1188.78 1879.86 1188.91 1880.04 1189.08C1880.22 1189.25 1880.36 1189.46 1880.45 1189.68C1888.69 1205.76 1894.14 1223.14 1896.56 1241.07C1910.51 1212.81 1932.79 1179.72 1967.35 1155.58C1967.53 1155.45 1967.73 1155.35 1967.95 1155.3C1968.17 1155.25 1968.39 1155.24 1968.61 1155.28C1968.83 1155.32 1969.04 1155.4 1969.22 1155.53C1969.41 1155.65 1969.56 1155.81 1969.69 1156C1969.81 1156.18 1969.9 1156.39 1969.95 1156.61C1970 1156.82 1970 1157.05 1969.96 1157.27C1969.93 1157.49 1969.84 1157.69 1969.72 1157.88C1969.61 1158.07 1969.45 1158.23 1969.27 1158.36C1933.79 1183.29 1911.43 1217.82 1897.81 1246.66C1916.06 1238.33 1936.32 1235.56 1956.11 1238.67C1956.33 1238.72 1956.53 1238.8 1956.72 1238.92C1956.9 1239.04 1957.06 1239.2 1957.19 1239.38C1957.31 1239.57 1957.4 1239.77 1957.44 1239.99C1957.48 1240.21 1957.49 1240.43 1957.44 1240.65C1957.39 1240.99 1957.23 1241.3 1956.99 1241.54C1956.75 1241.78 1956.44 1241.94 1956.11 1242H1955.49C1955.15 1242 1923.05 1236.07 1895.31 1251.71C1888.21 1267 1882.67 1282.97 1878.78 1299.4C1878.72 1299.73 1878.56 1300.03 1878.32 1300.26C1878.08 1300.49 1877.78 1300.65 1877.45 1300.7H1876.78C1876.57 1300.66 1876.36 1300.58 1876.18 1300.46C1876 1300.33 1875.84 1300.18 1875.72 1299.99C1875.6 1299.81 1875.52 1299.6 1875.48 1299.38C1875.44 1299.16 1875.44 1298.94 1875.49 1298.72Z" fill="#F0F0F0"/>
<path d="M285.453 934.179L285.286 874.171L254.305 856.383L254.471 914.961V916.307L285.453 934.179Z" fill="#22BC50"/>
<path d="M287.327 1629L285.369 934.179L254.388 916.307L256.304 1609.82C256.105 1612.07 256.48 1614.32 257.391 1616.37C258.303 1618.43 259.72 1620.21 261.509 1621.56L292.074 1640.39C290.407 1639.04 289.101 1637.29 288.272 1635.3C287.443 1633.31 287.118 1631.15 287.327 1629Z" fill="#22BC50"/>
<path opacity="0.2" d="M287.327 1629L285.369 934.179L254.388 916.307L256.304 1609.82C256.105 1612.07 256.48 1614.32 257.391 1616.37C258.303 1618.43 259.72 1620.21 261.509 1621.56L292.074 1640.39C290.407 1639.04 289.101 1637.29 288.272 1635.3C287.443 1633.31 287.118 1631.15 287.327 1629Z" fill="white"/>
<path d="M305.815 1639.6C304.672 1640.26 303.474 1640.82 302.234 1641.28C303.474 1640.82 304.672 1640.26 305.815 1639.6Z" fill="#455A64"/>
<path d="M285.411 874.045V839.52C285.72 833.1 287.525 826.844 290.68 821.261C293.834 815.678 298.25 810.927 303.567 807.393L1340.44 202.899C1342.28 201.572 1344.43 200.747 1346.67 200.504C1348.92 200.26 1351.19 200.608 1353.27 201.512L1322.66 182.546C1320.57 181.481 1318.22 181.019 1315.89 181.212C1313.55 181.405 1311.31 182.245 1309.42 183.64L272.544 788.133C267.208 791.637 262.77 796.368 259.592 801.937C256.415 807.507 254.589 813.757 254.263 820.176V854.743V856.089L285.244 873.918L285.411 874.045Z" fill="#22BC50"/>
<path opacity="0.3" d="M285.411 874.045V839.52C285.72 833.1 287.525 826.844 290.68 821.261C293.834 815.678 298.25 810.927 303.567 807.393L1340.44 202.899C1342.28 201.572 1344.43 200.747 1346.67 200.504C1348.92 200.26 1351.19 200.608 1353.27 201.512L1322.66 182.546C1320.57 181.481 1318.22 181.019 1315.89 181.212C1313.55 181.405 1311.31 182.245 1309.42 183.64L272.544 788.133C267.208 791.637 262.77 796.368 259.592 801.937C256.415 807.507 254.589 813.757 254.263 820.176V854.743V856.089L285.244 873.918L285.411 874.045Z" fill="white"/>
<path opacity="0.2" d="M285.453 934.179L285.286 874.171L254.305 856.383L254.471 914.961V916.307L285.453 934.179Z" fill="black"/>
<path opacity="0.2" d="M285.453 934.179L285.286 874.171L254.305 856.383L254.471 914.961V916.307L285.453 934.179Z" fill="white"/>
<path d="M1340.4 202.984C1350.52 197.096 1358.76 201.848 1358.8 213.623V248.189L285.411 874.045V839.52C285.72 833.1 287.525 826.844 290.68 821.261C293.834 815.678 298.25 810.927 303.567 807.393L1340.4 202.984Z" fill="#22BC50"/>
<path d="M1270.9 260.174C1276.31 256.978 1280.73 259.543 1280.73 265.809C1280.55 269.24 1279.58 272.581 1277.88 275.557C1276.17 278.532 1273.8 281.057 1270.94 282.924C1265.53 286.12 1261.11 283.555 1261.11 277.289C1261.28 273.855 1262.25 270.51 1263.95 267.533C1265.65 264.556 1268.04 262.033 1270.9 260.174Z" fill="white"/>
<path d="M1300.84 242.68C1306.25 239.527 1310.67 242.092 1310.67 248.357C1310.5 251.791 1309.53 255.136 1307.83 258.113C1306.13 261.09 1303.74 263.613 1300.88 265.472C1295.47 268.626 1291.05 266.103 1291.05 259.795C1291.24 256.366 1292.22 253.029 1293.92 250.055C1295.62 247.081 1297.99 244.555 1300.84 242.68Z" fill="white"/>
<path d="M1330.74 225.271C1336.19 222.075 1340.57 224.64 1340.61 230.906C1340.44 234.35 1339.46 237.703 1337.76 240.693C1336.06 243.683 1333.68 246.223 1330.82 248.105C1325.41 251.301 1320.99 248.736 1320.95 242.47C1321.12 239.027 1322.1 235.673 1323.8 232.683C1325.5 229.693 1327.88 227.153 1330.74 225.271Z" fill="white"/>
<path d="M501.281 713.912C505.445 711.557 509.068 711.977 510.983 715.005L520.727 730.144C522.684 733.172 526.39 733.592 530.43 731.237L1358.76 248.105V308.197L285.453 934.263V874.171L317.267 855.626C321.756 852.672 325.164 848.315 326.969 843.221L336.547 816.812C338.322 811.724 341.72 807.376 346.208 804.449L501.281 713.912Z" fill="#E0E0E0"/>
<path d="M1358.93 308.281L1360.89 1003.14C1360.55 1009.55 1358.72 1015.78 1355.54 1021.34C1352.37 1026.89 1347.93 1031.61 1342.61 1035.1L305.815 1639.6C295.655 1645.53 287.451 1640.77 287.41 1629L285.453 934.179L1358.93 308.281Z" fill="white"/>
<g opacity="0.4">
<path d="M285.953 934.465L1358.43 309.15L1360.39 1003.13C1360.05 1009.45 1358.25 1015.61 1355.11 1021.09C1351.97 1026.57 1347.6 1031.23 1342.34 1034.68C1342.34 1034.68 1342.34 1034.68 1342.33 1034.68L305.563 1639.16C300.573 1642.08 296.183 1642.3 293.068 1640.5C289.951 1638.71 287.93 1634.78 287.91 1629L285.953 934.465Z" fill="white" stroke="black"/>
</g>
<path d="M1316.5 285.195C1323.7 280.989 1329.53 284.354 1329.57 292.722C1329.32 297.264 1328.01 301.682 1325.75 305.619C1323.5 309.557 1320.35 312.903 1316.58 315.388L408.087 845.239C400.883 849.444 395.011 846.038 394.97 837.67C395.223 833.117 396.534 828.688 398.799 824.743C401.063 820.797 404.217 817.446 408.004 814.962L1316.5 285.195Z" fill="white"/>
<path d="M302.609 879.511C302.815 879.381 303.053 879.311 303.296 879.311C303.539 879.311 303.777 879.381 303.983 879.511C304.649 879.974 304.608 881.362 303.983 882.581L298.278 892.043L313.186 883.086C313.362 882.937 313.578 882.846 313.807 882.825C314.035 882.804 314.264 882.854 314.464 882.969C314.663 883.083 314.823 883.256 314.922 883.465C315.021 883.674 315.055 883.908 315.018 884.137C315 884.787 314.823 885.423 314.504 885.988C314.184 886.553 313.732 887.029 313.186 887.375L298.153 896.122L303.9 898.897C304.649 899.276 304.733 900.579 303.9 901.799C303.584 902.405 303.127 902.925 302.567 903.313C302.367 903.413 302.146 903.465 301.922 903.465C301.698 903.465 301.477 903.413 301.276 903.313L292.074 898.855L291.699 898.477V897.72V896.795L292.032 896.038L301.235 880.815C301.561 880.257 302.037 879.805 302.609 879.511Z" fill="#E0E0E0"/>
<path d="M335.173 860.546C335.366 860.446 335.58 860.394 335.797 860.394C336.014 860.394 336.228 860.446 336.422 860.546L345.625 864.793L345.958 865.214V865.971V866.896V867.106L345.666 867.863L336.505 883.086C336.2 883.605 335.77 884.039 335.256 884.347C335.058 884.479 334.827 884.55 334.59 884.55C334.353 884.55 334.121 884.479 333.923 884.347C333.215 883.927 333.257 882.539 333.923 881.278L339.628 871.858L324.804 880.773C323.804 881.32 322.972 880.773 322.972 879.68C323.011 879.045 323.193 878.427 323.503 877.874C323.813 877.32 324.244 876.845 324.762 876.484L339.836 867.737L334.09 864.962C333.299 864.583 333.299 863.279 334.09 861.976C334.329 861.417 334.701 860.925 335.173 860.546Z" fill="#E0E0E0"/>
<path d="M366.071 842.506C367.917 841.295 370.162 840.872 372.317 841.329L373.691 839.478C373.96 839.106 374.3 838.792 374.69 838.553C375.016 838.455 375.364 838.455 375.69 838.553C376.314 838.553 376.606 839.31 376.523 840.235L375.731 845.954C375.627 846.641 375.355 847.291 374.94 847.847C374.672 848.219 374.332 848.534 373.941 848.772L373.483 848.982L369.027 850.243C368.873 850.296 368.708 850.312 368.547 850.288C368.386 850.265 368.232 850.204 368.098 850.11C367.965 850.016 367.855 849.892 367.777 849.747C367.7 849.602 367.657 849.441 367.653 849.276C367.588 848.344 367.887 847.423 368.486 846.711L368.902 846.122C367.916 846.158 366.956 846.448 366.112 846.963C364.191 848.225 362.591 849.926 361.441 851.927C360.291 853.929 359.623 856.175 359.491 858.486C359.491 862.691 362.489 864.457 366.154 862.312C368.838 860.594 370.875 858.018 371.942 854.995C372.24 854.157 372.794 853.435 373.524 852.935C373.791 852.779 374.091 852.693 374.399 852.682C375.315 852.682 375.648 853.86 375.148 855.164C373.409 859.744 370.255 863.636 366.154 866.265C360.491 869.545 355.868 866.896 355.827 860.294C356.04 856.727 357.077 853.26 358.856 850.171C360.635 847.082 363.106 844.457 366.071 842.506Z" fill="#E0E0E0"/>
<g opacity="0.3">
<path d="M302.609 879.511C302.815 879.381 303.053 879.311 303.296 879.311C303.539 879.311 303.777 879.381 303.983 879.511C304.649 879.974 304.608 881.362 303.983 882.581L298.278 892.043L313.186 883.086C313.362 882.937 313.578 882.846 313.807 882.825C314.035 882.804 314.264 882.854 314.464 882.969C314.663 883.083 314.823 883.256 314.922 883.465C315.021 883.674 315.055 883.908 315.018 884.137C315 884.787 314.823 885.423 314.504 885.988C314.184 886.553 313.732 887.029 313.186 887.375L298.153 896.122L303.9 898.897C304.649 899.276 304.733 900.579 303.9 901.799C303.584 902.405 303.127 902.925 302.567 903.313C302.367 903.413 302.146 903.465 301.922 903.465C301.698 903.465 301.477 903.413 301.276 903.313L292.074 898.855L291.699 898.477V897.72V896.795L292.032 896.038L301.235 880.815C301.561 880.257 302.037 879.805 302.609 879.511Z" fill="black"/>
</g>
<g opacity="0.3">
<path d="M335.173 860.546C335.366 860.446 335.58 860.394 335.797 860.394C336.014 860.394 336.228 860.446 336.422 860.546L345.625 864.793L345.958 865.214V865.971V866.896V867.106L345.666 867.863L336.505 883.086C336.2 883.605 335.77 884.039 335.256 884.347C335.058 884.479 334.827 884.55 334.59 884.55C334.353 884.55 334.121 884.479 333.923 884.347C333.215 883.927 333.257 882.539 333.923 881.278L339.628 871.858L324.804 880.773C323.804 881.32 322.972 880.773 322.972 879.68C323.011 879.045 323.193 878.427 323.503 877.874C323.813 877.32 324.244 876.845 324.762 876.484L339.836 867.737L334.09 864.962C333.299 864.583 333.299 863.279 334.09 861.976C334.329 861.417 334.701 860.925 335.173 860.546Z" fill="black"/>
</g>
<g opacity="0.3">
<path d="M366.071 842.506C367.917 841.295 370.162 840.872 372.317 841.329L373.691 839.478C373.96 839.106 374.3 838.792 374.69 838.553C375.016 838.455 375.364 838.455 375.69 838.553C376.314 838.553 376.606 839.31 376.523 840.235L375.731 845.954C375.627 846.641 375.355 847.291 374.94 847.847C374.672 848.219 374.332 848.534 373.941 848.772L373.483 848.982L369.027 850.243C368.873 850.296 368.708 850.312 368.547 850.288C368.386 850.265 368.232 850.204 368.098 850.11C367.965 850.016 367.855 849.892 367.777 849.747C367.7 849.602 367.657 849.441 367.653 849.276C367.588 848.344 367.887 847.423 368.486 846.711L368.902 846.122C367.916 846.158 366.956 846.448 366.112 846.963C364.191 848.225 362.591 849.926 361.441 851.927C360.291 853.929 359.623 856.175 359.491 858.486C359.491 862.691 362.489 864.457 366.154 862.312C368.838 860.594 370.875 858.018 371.942 854.995C372.24 854.157 372.794 853.435 373.524 852.935C373.791 852.779 374.091 852.693 374.399 852.682C375.315 852.682 375.648 853.86 375.148 855.164C373.409 859.744 370.255 863.636 366.154 866.265C360.491 869.545 355.868 866.896 355.827 860.294C356.04 856.727 357.077 853.26 358.856 850.171C360.635 847.082 363.106 844.457 366.071 842.506Z" fill="black"/>
</g>
<g opacity="0.6">
<path d="M1311.29 511.433L1312.25 761.262C1312.27 772.573 1309.35 783.69 1303.77 793.499C1298.19 803.308 1290.16 811.464 1280.48 817.149L744.509 1131.19C741.284 1133.08 737.624 1134.08 733.896 1134.09C730.168 1134.1 726.503 1133.11 723.271 1131.24C720.038 1129.36 717.351 1126.66 715.48 1123.41C713.609 1120.15 712.619 1116.45 712.611 1112.69L711.695 862.859C711.658 851.55 714.571 840.43 720.141 830.619C725.711 820.809 733.742 812.653 743.426 806.972L1279.39 493.014C1282.61 491.128 1286.27 490.129 1289.99 490.116C1293.71 490.104 1297.37 491.08 1300.6 492.945C1303.83 494.81 1306.52 497.5 1308.39 500.745C1310.27 503.989 1311.27 507.675 1311.29 511.433Z" fill="#148BCC"/>
</g>
<path d="M1093.96 662.693L986.404 868.998L955.964 927.45L976.91 861.639L917.613 815.13L851.569 947.635L851.819 1028.58L1198.4 826.484L1198.15 745.535L1093.96 662.693Z" fill="white"/>
<path d="M980.325 772.069C988.897 766.425 996.03 758.818 1001.15 749.868C1006.26 740.917 1009.21 730.875 1009.77 720.556C1009.77 701.633 996.44 693.979 980.116 703.483C971.538 709.12 964.399 716.725 959.283 725.677C954.167 734.629 951.218 744.675 950.676 754.996C950.718 773.751 964.001 781.573 980.325 772.069Z" fill="white"/>
<g opacity="0.3">
<path d="M1093.96 662.693L986.404 868.998L955.964 927.45L976.91 861.639L917.613 815.13L851.569 947.635L851.819 1028.58L1198.4 826.484L1198.15 745.535L1093.96 662.693Z" fill="white"/>
<path d="M980.325 772.069C988.897 766.425 996.03 758.818 1001.15 749.868C1006.26 740.917 1009.21 730.875 1009.77 720.556C1009.77 701.633 996.44 693.979 980.116 703.483C971.538 709.12 964.399 716.725 959.283 725.677C954.167 734.629 951.218 744.675 950.676 754.996C950.718 773.751 964.001 781.573 980.325 772.069Z" fill="white"/>
</g>
<g opacity="0.6">
<path d="M995.232 1032.83L995.649 1183.71C995.65 1188.82 994.324 1193.84 991.803 1198.27C989.282 1202.69 985.654 1206.38 981.283 1208.94L726.52 1358.27C725.058 1359.12 723.402 1359.56 721.716 1359.56C720.031 1359.56 718.376 1359.11 716.917 1358.26C715.458 1357.4 714.246 1356.18 713.403 1354.71C712.559 1353.23 712.114 1351.56 712.112 1349.86L711.695 1198.94C711.673 1193.82 712.991 1188.8 715.514 1184.37C718.037 1179.94 721.676 1176.26 726.062 1173.7L980.741 1024.46C982.202 1023.6 983.863 1023.14 985.557 1023.13C987.251 1023.12 988.918 1023.56 990.388 1024.41C991.859 1025.26 993.081 1026.48 993.932 1027.96C994.783 1029.44 995.231 1031.12 995.232 1032.83Z" fill="#148BCC"/>
</g>
<path d="M828.375 1159.24L907.285 1166.09L828.666 1264.75L828.375 1159.24Z" fill="white"/>
<g opacity="0.3">
<path d="M828.375 1159.24L907.285 1166.09L828.666 1264.75L828.375 1159.24Z" fill="white"/>
</g>
<g opacity="0.6">
<path d="M1308.38 849.444L1308.79 1000.33C1308.81 1005.44 1307.49 1010.46 1304.96 1014.89C1302.44 1019.32 1298.81 1023 1294.43 1025.56L1041.04 1172.19C1039.58 1173.05 1037.91 1173.5 1036.22 1173.5C1034.53 1173.51 1032.87 1173.06 1031.4 1172.21C1029.94 1171.35 1028.72 1170.13 1027.88 1168.65C1027.03 1167.17 1026.59 1165.49 1026.59 1163.78L1026.17 1012.9C1026.17 1007.79 1027.5 1002.77 1030.02 998.346C1032.54 993.919 1036.17 990.237 1040.54 987.668L1293.93 841.034C1295.39 840.176 1297.05 839.723 1298.74 839.72C1300.43 839.718 1302.1 840.165 1303.56 841.018C1305.03 841.871 1306.24 843.099 1307.09 844.579C1307.93 846.058 1308.38 847.736 1308.38 849.444Z" fill="#148BCC"/>
</g>
<path d="M1138.94 970.385L1217.81 977.24L1139.23 1075.89L1138.94 970.385Z" fill="white"/>
<g opacity="0.3">
<path d="M1138.94 970.385L1217.81 977.24L1139.23 1075.89L1138.94 970.385Z" fill="white"/>
</g>
<g opacity="0.7">
<path d="M568.115 838.301L568.199 876.358L352.62 1002.05L352.537 964.035L568.115 838.301Z" fill="white"/>
<path d="M481.584 947.635L481.668 966.558L352.745 1041.75L352.704 1022.82L481.584 947.635Z" fill="white"/>
<path d="M830.54 685.485L830.624 707.688L768.203 744.063L768.12 721.902L830.54 685.485Z" fill="white"/>
<path d="M950.26 615.679L950.301 637.882L867.101 686.41L867.06 664.207L950.26 615.679Z" fill="white"/>
<path d="M1190.91 475.395L1190.95 497.598L1128.53 533.973L1128.49 511.811L1190.91 475.395Z" fill="white"/>
<path d="M1310.63 405.589L1310.67 427.792L1227.47 476.32L1227.38 454.116L1310.63 405.589Z" fill="white"/>
<path d="M1085.64 536.748L1085.68 558.951L986.363 616.898L986.28 594.695L1085.64 536.748Z" fill="white"/>
</g>
<g opacity="0.7">
<path d="M569.781 1052.09L569.823 1068.87L352.995 1195.28L352.954 1178.5L569.781 1052.09Z" fill="#22BC50"/>
<path d="M438.152 1157.98L438.235 1174.71L353.078 1224.38L353.037 1207.6L438.152 1157.98Z" fill="#22BC50"/>
<path d="M570.031 1150.41L570.072 1167.19L353.287 1293.59L353.245 1276.82L570.031 1150.41Z" fill="#22BC50"/>
<path d="M569.947 1121.31L569.989 1138.05L353.203 1264.45L353.162 1247.72L569.947 1121.31Z" fill="#22BC50"/>
<path d="M569.698 1022.99L569.739 1039.73L352.912 1166.14L352.87 1149.4L569.698 1022.99Z" fill="#22BC50"/>
<path d="M523.309 1206.8L523.351 1223.54L353.37 1322.65L353.287 1305.92L523.309 1206.8Z" fill="#22BC50"/>
</g>
<g opacity="0.7">
<path d="M569.781 1052.09L569.823 1068.87L352.995 1195.28L352.954 1178.5L569.781 1052.09Z" fill="#22BC50"/>
<path d="M438.152 1157.98L438.235 1174.71L353.078 1224.38L353.037 1207.6L438.152 1157.98Z" fill="#22BC50"/>
<path d="M570.031 1150.41L570.072 1167.19L353.287 1293.59L353.245 1276.82L570.031 1150.41Z" fill="#22BC50"/>
<path d="M569.947 1121.31L569.989 1138.05L353.203 1264.45L353.162 1247.72L569.947 1121.31Z" fill="#22BC50"/>
<path d="M569.698 1022.99L569.739 1039.73L352.912 1166.14L352.87 1149.4L569.698 1022.99Z" fill="#22BC50"/>
<path d="M523.309 1206.8L523.351 1223.54L353.37 1322.65L353.287 1305.92L523.309 1206.8Z" fill="#22BC50"/>
</g>
<g opacity="0.7">
<path d="M569.781 1052.09L569.823 1068.87L352.995 1195.28L352.954 1178.5L569.781 1052.09Z" fill="#22BC50"/>
<path d="M438.152 1157.98L438.235 1174.71L353.078 1224.38L353.037 1207.6L438.152 1157.98Z" fill="#22BC50"/>
<path d="M570.031 1150.41L570.072 1167.19L353.287 1293.59L353.245 1276.82L570.031 1150.41Z" fill="#22BC50"/>
<path d="M569.947 1121.31L569.989 1138.05L353.203 1264.45L353.162 1247.72L569.947 1121.31Z" fill="#22BC50"/>
<path d="M569.698 1022.99L569.739 1039.73L352.912 1166.14L352.87 1149.4L569.698 1022.99Z" fill="#22BC50"/>
<path d="M523.309 1206.8L523.351 1223.54L353.37 1322.65L353.287 1305.92L523.309 1206.8Z" fill="#22BC50"/>
</g>
<g opacity="0.7">
<path d="M563.41 1312.01C582.065 1301.12 597.264 1309.87 597.348 1331.53C597.431 1353.18 582.315 1379.59 563.618 1390.4L382.144 1496.24C363.447 1507.13 348.248 1498.43 348.206 1476.73C348.165 1455.03 363.239 1428.66 381.894 1417.86L563.41 1312.01Z" fill="#FE4C1C"/>
</g>
<path d="M446.439 1404.61L446.605 1433.96L438.818 1438.46L438.693 1425.13L433.238 1439.09L429.491 1441.28L423.952 1434.22L423.994 1447.13L416.207 1451.67L416.124 1422.27L423.119 1418.19L431.448 1429.04L439.443 1408.69L446.439 1404.61Z" fill="white"/>
<path d="M463.928 1393.76C472.257 1388.97 478.211 1391.91 478.253 1400.78C477.992 1405.61 476.556 1410.31 474.072 1414.44C471.588 1418.58 468.132 1422.03 464.012 1424.5C455.683 1429.3 449.687 1426.35 449.645 1417.48C449.911 1412.64 451.353 1407.95 453.844 1403.81C456.336 1399.68 459.8 1396.22 463.928 1393.76ZM463.928 1416.47C465.678 1415.32 467.113 1413.74 468.103 1411.88C469.092 1410.02 469.604 1407.94 469.591 1405.83C469.591 1401.25 467.051 1399.94 463.887 1401.63C462.145 1402.78 460.717 1404.36 459.735 1406.22C458.754 1408.08 458.248 1410.16 458.265 1412.26C458.265 1416.85 460.805 1418.11 463.928 1416.47Z" fill="white"/>
<path d="M500.323 1393.55L505.695 1399.48L496.575 1404.82L492.411 1399.94L490.079 1401.29V1408.73L481.751 1413.69V1384.26L493.952 1377.11C500.989 1372.9 505.486 1374.67 505.528 1381.31C505.346 1385.9 503.492 1390.26 500.323 1393.55ZM492.994 1392C494.012 1391.5 494.874 1390.74 495.484 1389.78C496.095 1388.82 496.429 1387.71 496.45 1386.57C496.45 1384.43 495.326 1383.75 492.994 1385.14L489.871 1386.95V1393.8L492.952 1392" fill="white"/>
<path d="M528.847 1356.55L528.889 1364.07L516.688 1371.14V1374.59L527.39 1368.36L527.432 1375.47L516.73 1381.69V1385.6L529.389 1378.2V1385.69L508.36 1397.92L508.276 1368.57L528.847 1356.55Z" fill="white"/>
<path d="M371.652 1068.87C368.912 1070.45 366.426 1071.34 364.194 1071.54C362 1071.71 360.248 1071.15 358.938 1069.85C357.628 1068.55 356.932 1066.52 356.848 1063.77L365.292 1058.89C365.435 1060.69 366.023 1061.84 367.054 1062.34C368.123 1062.82 369.558 1062.53 371.359 1061.49C373.198 1060.43 374.634 1059.1 375.669 1057.5C376.702 1055.85 377.205 1054.2 377.178 1052.56C377.156 1051.21 376.781 1050.31 376.053 1049.86C375.326 1049.4 374.414 1049.25 373.318 1049.41C372.259 1049.49 370.786 1049.77 368.899 1050.25C366.333 1050.86 364.236 1051.21 362.609 1051.32C361.018 1051.37 359.627 1050.88 358.436 1049.86C357.281 1048.78 356.68 1046.81 356.633 1043.95C356.588 1041.26 357.131 1038.59 358.262 1035.92C359.392 1033.26 360.999 1030.8 363.084 1028.54C365.167 1026.25 367.56 1024.32 370.262 1022.76C374.315 1020.42 377.618 1019.67 380.17 1020.52C382.759 1021.3 384.219 1023.65 384.549 1027.57L375.88 1032.57C375.779 1031.06 375.177 1030.11 374.072 1029.75C373.004 1029.31 371.588 1029.6 369.824 1030.62C368.285 1031.51 367.055 1032.68 366.131 1034.13C365.246 1035.56 364.817 1037.14 364.846 1038.88C364.866 1040.09 365.221 1040.91 365.91 1041.35C366.636 1041.71 367.51 1041.87 368.532 1041.8C369.59 1041.67 371.063 1041.39 372.951 1040.96C375.517 1040.35 377.614 1040.01 379.242 1039.95C380.87 1039.88 382.28 1040.38 383.472 1041.44C384.664 1042.5 385.284 1044.44 385.331 1047.26C385.371 1049.69 384.864 1052.25 383.81 1054.96C382.756 1057.67 381.189 1060.26 379.108 1062.73C377.027 1065.15 374.541 1067.2 371.652 1068.87ZM399.631 1013.87L399.82 1025.25L413.048 1017.61L413.168 1024.82L399.939 1032.46L400.139 1044.48L415.056 1035.87L415.179 1043.28L392.381 1056.44L391.627 1011.01L414.425 997.852L414.548 1005.26L399.631 1013.87ZM440.587 1029.07C436.909 1031.19 433.515 1032.15 430.404 1031.93C427.294 1031.71 424.809 1030.37 422.95 1027.9C421.089 1025.39 420.122 1021.9 420.048 1017.44C419.975 1013.02 420.81 1008.53 422.553 1003.99C424.296 999.392 426.689 995.211 429.733 991.441C432.777 987.672 436.138 984.725 439.816 982.602C443.531 980.457 446.925 979.503 449.998 979.741C453.108 979.958 455.575 981.333 457.398 983.868C459.257 986.337 460.224 989.782 460.297 994.201C460.371 998.664 459.537 1003.19 457.794 1007.78C456.089 1012.31 453.714 1016.46 450.669 1020.23C447.625 1024 444.264 1026.95 440.587 1029.07ZM440.452 1020.95C442.816 1019.58 444.889 1017.77 446.67 1015.52C448.451 1013.22 449.828 1010.63 450.804 1007.75C451.779 1004.87 452.241 1001.91 452.191 998.881C452.141 995.848 451.59 993.498 450.54 991.83C449.488 990.118 448.052 989.176 446.23 989.003C444.409 988.83 442.316 989.426 439.952 990.791C437.588 992.156 435.496 993.976 433.677 996.251C431.896 998.504 430.518 1001.07 429.543 1003.95C428.567 1006.79 428.104 1009.73 428.154 1012.76C428.205 1015.79 428.755 1018.16 429.807 1019.88C430.858 1021.59 432.295 1022.55 434.117 1022.77C435.976 1022.92 438.088 1022.31 440.452 1020.95ZM480.112 1006.25C477.373 1007.83 474.887 1008.72 472.655 1008.92C470.46 1009.09 468.708 1008.53 467.398 1007.23C466.089 1005.93 465.392 1003.9 465.308 1001.15L473.752 996.275C473.896 998.073 474.483 999.221 475.514 999.719C476.583 1000.2 478.018 999.914 479.819 998.874C481.658 997.812 483.095 996.48 484.129 994.877C485.162 993.23 485.666 991.584 485.638 989.937C485.616 988.594 485.241 987.695 484.514 987.24C483.786 986.785 482.875 986.634 481.778 986.785C480.719 986.872 479.246 987.154 477.36 987.631C474.793 988.237 472.697 988.595 471.069 988.704C469.479 988.747 468.088 988.26 466.896 987.242C465.742 986.158 465.141 984.187 465.093 981.327C465.049 978.641 465.592 975.966 466.722 973.301C467.852 970.636 469.46 968.177 471.544 965.924C473.628 963.628 476.02 961.699 478.722 960.139C482.775 957.799 486.078 957.052 488.63 957.896C491.22 958.676 492.679 961.026 493.01 964.948L484.341 969.953C484.24 968.436 483.637 967.494 482.532 967.126C481.464 966.692 480.048 966.985 478.284 968.003C476.746 968.892 475.515 970.062 474.592 971.513C473.706 972.943 473.278 974.524 473.307 976.258C473.327 977.471 473.681 978.294 474.37 978.727C475.096 979.095 475.97 979.247 476.992 979.182C478.051 979.052 479.524 978.77 481.411 978.337C483.977 977.73 486.074 977.394 487.702 977.329C489.331 977.264 490.741 977.762 491.933 978.823C493.125 979.885 493.744 981.823 493.791 984.64C493.831 987.066 493.324 989.633 492.271 992.341C491.217 995.049 489.649 997.638 487.569 1000.11C485.487 1002.53 483.002 1004.58 480.112 1006.25ZM526.827 933.022L526.949 940.366L516.479 946.411L517.109 984.431L509.228 988.981L508.598 950.961L498.128 957.006L498.006 949.662L526.827 933.022ZM557.279 952.512L541.63 961.547L539.184 971.686L530.909 976.463L544.285 922.877L553.461 917.58L568.343 954.851L560.012 959.661L557.279 952.512ZM555.019 946.468L549.019 930.773L543.648 953.033L555.019 946.468ZM580.753 901.888L581.505 947.252L573.624 951.802L572.872 906.438L580.753 901.888ZM609.556 931.056L600.594 918.384L596.879 920.529L597.172 938.206L589.291 942.756L588.539 897.393L603.288 888.878C606.327 887.123 608.927 886.256 611.087 886.277C613.246 886.256 614.869 887.003 615.955 888.519C617.078 889.971 617.661 891.996 617.704 894.596C617.753 897.585 617.048 900.727 615.587 904.02C614.125 907.269 611.92 910.205 608.97 912.826L618.676 925.791L609.556 931.056ZM596.766 913.705L603.352 909.902C605.491 908.667 607.076 907.162 608.108 905.385C609.138 903.565 609.636 901.594 609.601 899.471C609.567 897.391 609.015 896.091 607.945 895.571C606.875 895.008 605.27 895.344 603.131 896.579L596.545 900.382L596.766 913.705ZM638.927 914.559C636.188 916.14 633.702 917.029 631.47 917.224C629.275 917.397 627.523 916.834 626.213 915.534C624.904 914.235 624.207 912.209 624.123 909.458L632.567 904.583C632.711 906.381 633.298 907.529 634.329 908.027C635.398 908.504 636.833 908.222 638.634 907.182C640.473 906.12 641.91 904.788 642.944 903.185C643.978 901.538 644.481 899.892 644.453 898.245C644.431 896.902 644.056 896.003 643.329 895.548C642.601 895.093 641.69 894.942 640.593 895.094C639.534 895.18 638.061 895.462 636.175 895.939C633.608 896.546 631.512 896.903 629.884 897.012C628.294 897.055 626.903 896.568 625.711 895.55C624.557 894.467 623.956 892.495 623.908 889.636C623.864 886.949 624.407 884.274 625.537 881.609C626.667 878.944 628.275 876.485 630.359 874.232C632.443 871.936 634.835 870.007 637.537 868.447C641.59 866.107 644.893 865.36 647.446 866.204C650.035 866.984 651.495 869.335 651.825 873.256L643.156 878.261C643.055 876.744 642.452 875.802 641.347 875.434C640.279 875 638.863 875.293 637.099 876.311C635.561 877.2 634.33 878.37 633.407 879.821C632.521 881.251 632.093 882.833 632.122 884.566C632.142 885.779 632.496 886.602 633.185 887.035C633.911 887.403 634.785 887.555 635.807 887.49C636.866 887.36 638.339 887.078 640.226 886.645C642.792 886.038 644.889 885.702 646.517 885.637C648.146 885.572 649.556 886.07 650.748 887.131C651.94 888.193 652.559 890.132 652.606 892.948C652.646 895.374 652.139 897.941 651.086 900.649C650.032 903.358 648.464 905.946 646.384 908.416C644.302 910.843 641.817 912.89 638.927 914.559Z" fill="black"/>
<path d="M1054.61 1795.27L1054.57 1813.65L930.73 1741.45L930.771 1723.07L1054.61 1795.27Z" fill="#FE4C1C"/>
<path d="M1054.7 1767.52L1054.61 1785.94L1004.27 1756.58L1004.31 1738.12L1054.7 1767.52Z" fill="#FE4C1C"/>
<path d="M849.362 1703.35L849.32 1721.76L760.166 1669.79L760.208 1651.37L849.362 1703.35Z" fill="#FE4C1C"/>
<path d="M903.205 1707L903.163 1725.38L760.249 1642.08L760.291 1623.66L903.205 1707Z" fill="#FE4C1C"/>
<path d="M980.325 1724.16L980.283 1742.58L838.827 1660.12L825.043 1652.09L759.375 1613.82L759.416 1595.36L825.127 1633.67L838.91 1641.7L980.325 1724.16Z" fill="#FE4C1C"/>
<path d="M939.1 1634.55L939.058 1652.93L760.499 1548.85L760.582 1530.47L939.1 1634.55Z" fill="#FE4C1C"/>
<path d="M928.856 1600.78L928.772 1619.16L893.918 1598.81L893.96 1580.43L928.856 1600.78Z" fill="#FE4C1C"/>
<path d="M918.695 1743.8L918.654 1762.18L868.309 1732.82L868.351 1714.45L918.695 1743.8Z" fill="#FE4C1C"/>
<path d="M1054.95 1674.29L1054.9 1692.67L955.631 1634.8L955.673 1616.38L1054.95 1674.29Z" fill="#FE4C1C"/>
<path d="M1055.03 1646.58L1054.99 1664.95L985.572 1624.5L970.247 1615.58L878.261 1561.93L878.303 1543.55L970.289 1597.17L985.613 1606.12L1055.03 1646.58Z" fill="#FE4C1C"/>
<path d="M980.824 1547.75L980.741 1566.13L865.228 1498.76L865.269 1480.39L980.824 1547.75Z" fill="#FE4C1C"/>
<path d="M865.019 1563.57L864.978 1581.94L760.582 1521.09L760.624 1502.72L865.019 1563.57Z" fill="#FE4C1C"/>
<path d="M849.862 1526.98L849.82 1545.36L760.666 1493.38L760.707 1475.01L849.862 1526.98Z" fill="#FE4C1C"/>
<path d="M839.368 1465.29L839.326 1483.67L759.874 1437.37L759.916 1418.95L839.368 1465.29Z" fill="#FE4C1C"/>
<path d="M903.704 1530.6L903.663 1548.97L760.749 1465.67L760.791 1447.29L903.704 1530.6Z" fill="#FE4C1C"/>
<path d="M877.429 1459.7L877.387 1478.12L759.958 1409.66L759.999 1391.24L877.429 1459.7Z" fill="#FE4C1C"/>
<path d="M1055.11 1618.86L1055.07 1637.28L931.229 1565.08L931.271 1546.66L1055.11 1618.86Z" fill="#FE4C1C"/>
<path d="M1055.2 1591.11L1055.11 1609.49L1004.77 1580.13L1004.81 1561.76L1055.2 1591.11Z" fill="#FE4C1C"/>
<g opacity="0.6">
<path d="M1054.61 1795.27L1054.57 1813.65L930.73 1741.45L930.771 1723.07L1054.61 1795.27Z" fill="white"/>
<path d="M1054.7 1767.52L1054.61 1785.94L1004.27 1756.58L1004.31 1738.12L1054.7 1767.52Z" fill="white"/>
<path d="M849.362 1703.35L849.32 1721.76L760.166 1669.79L760.208 1651.37L849.362 1703.35Z" fill="white"/>
<path d="M903.205 1707L903.163 1725.38L760.249 1642.08L760.291 1623.66L903.205 1707Z" fill="white"/>
<path d="M980.325 1724.16L980.283 1742.58L838.827 1660.12L825.043 1652.09L759.375 1613.82L759.416 1595.36L825.127 1633.67L838.91 1641.7L980.325 1724.16Z" fill="white"/>
<path d="M939.1 1634.55L939.058 1652.93L760.499 1548.85L760.582 1530.47L939.1 1634.55Z" fill="white"/>
<path d="M928.856 1600.78L928.772 1619.16L893.918 1598.81L893.96 1580.43L928.856 1600.78Z" fill="white"/>
<path d="M918.695 1743.8L918.654 1762.18L868.309 1732.82L868.351 1714.45L918.695 1743.8Z" fill="white"/>
<path d="M1054.95 1674.29L1054.9 1692.67L955.631 1634.8L955.673 1616.38L1054.95 1674.29Z" fill="white"/>
<path d="M1055.03 1646.58L1054.99 1664.95L985.571 1624.5L970.247 1615.58L878.261 1561.93L878.303 1543.55L970.289 1597.17L985.613 1606.12L1055.03 1646.58Z" fill="white"/>
<path d="M980.824 1547.76L980.741 1566.13L865.227 1498.76L865.269 1480.39L980.824 1547.76Z" fill="white"/>
<path d="M865.019 1563.57L864.978 1581.94L760.582 1521.09L760.624 1502.72L865.019 1563.57Z" fill="white"/>
<path d="M849.862 1526.98L849.82 1545.36L760.666 1493.38L760.707 1475.01L849.862 1526.98Z" fill="white"/>
<path d="M839.368 1465.29L839.326 1483.67L759.874 1437.37L759.916 1418.95L839.368 1465.29Z" fill="white"/>
<path d="M903.704 1530.6L903.663 1548.97L760.749 1465.67L760.791 1447.29L903.704 1530.6Z" fill="white"/>
<path d="M877.429 1459.7L877.387 1478.12L759.958 1409.66L759.999 1391.24L877.429 1459.7Z" fill="white"/>
<path d="M1055.11 1618.86L1055.07 1637.28L931.229 1565.08L931.271 1546.66L1055.11 1618.86Z" fill="white"/>
<path d="M1055.2 1591.11L1055.11 1609.49L1004.77 1580.13L1004.81 1561.76L1055.2 1591.11Z" fill="white"/>
</g>
<path d="M699.578 1437.16L657.353 1411.93C657.035 1411.74 656.772 1411.47 656.589 1411.14C656.407 1410.82 656.311 1410.45 656.312 1410.08V1144.31L601.845 1112.48L603.969 1108.78L659.477 1141.24C659.802 1141.43 660.074 1141.69 660.264 1142.02C660.454 1142.34 660.556 1142.71 660.559 1143.09V1408.98L701.743 1433.46L699.578 1437.16Z" fill="#FE4C1C"/>
<path d="M711.737 1424.29C716.112 1427.18 719.753 1431.07 722.364 1435.64C724.976 1440.21 726.485 1445.34 726.77 1450.62C726.77 1460.29 719.982 1464.2 711.612 1459.32C707.237 1456.43 703.596 1452.54 700.985 1447.97C698.373 1443.4 696.864 1438.27 696.579 1433C696.621 1423.32 703.409 1419.41 711.737 1424.29Z" fill="#FE4C1C"/>
<path d="M610.756 1097.55C615.139 1100.43 618.788 1104.32 621.407 1108.89C624.026 1113.47 625.541 1118.6 625.83 1123.87C625.83 1133.55 619.001 1137.46 610.673 1132.58C606.29 1129.69 602.641 1125.81 600.022 1121.23C597.404 1116.66 595.888 1111.53 595.599 1106.25C595.474 1096.62 602.428 1092.71 610.756 1097.55Z" fill="#FE4C1C"/>
<g opacity="0.2">
<path d="M699.578 1437.16L657.353 1411.93C657.035 1411.74 656.772 1411.47 656.589 1411.14C656.407 1410.82 656.311 1410.45 656.312 1410.08V1144.31L601.845 1112.48L603.969 1108.78L659.477 1141.24C659.802 1141.43 660.074 1141.69 660.264 1142.02C660.454 1142.34 660.556 1142.71 660.559 1143.09V1408.98L701.743 1433.46L699.578 1437.16Z" fill="white"/>
<path d="M711.737 1424.29C716.112 1427.18 719.753 1431.07 722.364 1435.64C724.976 1440.21 726.485 1445.34 726.77 1450.62C726.77 1460.29 719.982 1464.2 711.612 1459.32C707.237 1456.43 703.596 1452.54 700.985 1447.97C698.373 1443.4 696.864 1438.27 696.579 1433C696.621 1423.32 703.409 1419.41 711.737 1424.29Z" fill="white"/>
<path d="M610.756 1097.55C615.139 1100.43 618.788 1104.32 621.407 1108.89C624.026 1113.47 625.541 1118.6 625.83 1123.87C625.83 1133.55 619.001 1137.46 610.673 1132.58C606.29 1129.69 602.641 1125.81 600.022 1121.23C597.404 1116.66 595.888 1111.53 595.599 1106.25C595.474 1096.62 602.428 1092.71 610.756 1097.55Z" fill="white"/>
</g>
<path d="M1791.09 553.4L1791 571.819L1667.2 499.616L1667.24 481.198L1791.09 553.4Z" fill="#FE4C1C"/>
<path d="M1791.13 525.646L1791.09 544.107L1740.74 514.713L1740.78 496.294L1791.13 525.646Z" fill="#FE4C1C"/>
<path d="M1585.83 461.517L1585.79 479.894L1496.64 427.918L1496.68 409.542L1585.83 461.517Z" fill="#FE4C1C"/>
<path d="M1639.68 465.134L1639.63 483.553L1496.72 400.206L1496.76 381.829L1639.68 465.134Z" fill="#FE4C1C"/>
<path d="M1716.75 482.291L1716.71 500.752L1575.3 418.288L1561.52 410.256L1495.85 371.947L1495.89 353.487L1561.56 391.796L1575.34 399.828L1716.75 482.291Z" fill="#FE4C1C"/>
<path d="M1655.17 501.929L1655.08 520.306L1604.78 490.996L1604.82 472.577L1655.17 501.929Z" fill="#FE4C1C"/>
<g opacity="0.6">
<path d="M1791.09 553.4L1791 571.819L1667.2 499.616L1667.24 481.198L1791.09 553.4Z" fill="white"/>
<path d="M1791.13 525.646L1791.09 544.107L1740.74 514.713L1740.78 496.294L1791.13 525.646Z" fill="white"/>
<path d="M1585.83 461.517L1585.79 479.894L1496.64 427.918L1496.68 409.542L1585.83 461.517Z" fill="white"/>
<path d="M1639.68 465.134L1639.63 483.553L1496.72 400.206L1496.76 381.829L1639.68 465.134Z" fill="white"/>
<path d="M1716.75 482.291L1716.71 500.752L1575.3 418.288L1561.52 410.256L1495.85 371.947L1495.89 353.487L1561.56 391.796L1575.34 399.828L1716.75 482.291Z" fill="white"/>
<path d="M1655.17 501.929L1655.08 520.306L1604.78 490.996L1604.82 472.577L1655.17 501.929Z" fill="white"/>
</g>
<path d="M1791.13 625.099L1791.09 643.517L1740.74 614.165L1740.78 595.746L1791.13 625.099Z" fill="#FE4C1C"/>
<path d="M1639.68 564.586L1639.63 582.963L1496.72 499.658L1496.76 481.282L1639.68 564.586Z" fill="#FE4C1C"/>
<path d="M1716.75 581.743L1716.71 600.162L1575.3 517.741L1561.52 509.667L1495.85 471.4L1495.89 452.939L1561.56 491.248L1575.34 499.28L1716.75 581.743Z" fill="#FE4C1C"/>
<g opacity="0.6">
<path d="M1791.13 625.099L1791.09 643.517L1740.74 614.165L1740.78 595.746L1791.13 625.099Z" fill="white"/>
<path d="M1639.68 564.586L1639.63 582.963L1496.72 499.658L1496.76 481.282L1639.68 564.586Z" fill="white"/>
<path d="M1716.75 581.743L1716.71 600.162L1575.3 517.741L1561.52 509.667L1495.85 471.4L1495.89 452.939L1561.56 491.248L1575.34 499.28L1716.75 581.743Z" fill="white"/>
</g>
<path d="M1571.05 567.698C1562.72 562.82 1555.94 566.731 1555.94 576.403C1556.07 581.096 1557.3 585.692 1559.52 589.817L1347.14 713.954L1280.19 674.509C1279.86 669.282 1278.34 664.203 1275.73 659.676C1273.12 655.15 1269.5 651.301 1265.15 648.437C1256.82 643.559 1250.04 647.47 1250 657.142C1250.28 662.413 1251.79 667.543 1254.4 672.116C1257.01 676.689 1260.65 680.577 1265.03 683.466C1271.98 687.672 1277.77 685.443 1279.56 679.261L1347.14 719.084L1561.56 593.307C1563.92 597.06 1567.1 600.223 1570.84 602.559C1579.17 607.437 1585.96 603.526 1586 593.854C1585.7 588.619 1584.19 583.528 1581.6 578.987C1579 574.445 1575.39 570.58 1571.05 567.698Z" fill="#FE4C1C"/>
<path opacity="0.2" d="M1571.05 567.698C1562.72 562.82 1555.94 566.731 1555.94 576.403C1556.07 581.096 1557.3 585.692 1559.52 589.817L1347.14 713.954L1280.19 674.509C1279.86 669.282 1278.34 664.203 1275.73 659.676C1273.12 655.15 1269.5 651.301 1265.15 648.437C1256.82 643.559 1250.04 647.47 1250 657.142C1250.28 662.413 1251.79 667.543 1254.4 672.116C1257.01 676.689 1260.65 680.577 1265.03 683.466C1271.98 687.672 1277.77 685.443 1279.56 679.261L1347.14 719.084L1561.56 593.307C1563.92 597.06 1567.1 600.223 1570.84 602.559C1579.17 607.437 1585.96 603.526 1586 593.854C1585.7 588.619 1584.19 583.528 1581.6 578.987C1579 574.445 1575.39 570.58 1571.05 567.698Z" fill="white"/>
<path d="M1327.32 1220.85C1291.85 1245.74 1251.87 1262.9 1222.26 1296.33C1166.88 1358.61 1165.59 1458.9 1209.06 1530.14C1252.54 1601.37 1333.4 1644.22 1415.81 1654.06C1502.18 1664.32 1592.79 1640.23 1660.58 1585.18C1728.37 1530.14 1771.43 1444.1 1771.39 1356.29C1771.35 1268.49 1726.83 1181.02 1654 1133.04C1587.37 1089.27 1492.02 1076.78 1425.35 1126.86C1391.62 1152.09 1369.17 1189.56 1335.53 1214.96C1332.78 1216.98 1330.07 1218.91 1327.32 1220.85Z" fill="#37474F"/>
<path opacity="0.2" d="M1327.32 1220.85C1291.85 1245.74 1251.87 1262.9 1222.26 1296.33C1166.88 1358.61 1165.59 1458.9 1209.06 1530.14C1252.54 1601.37 1333.4 1644.22 1415.81 1654.06C1502.18 1664.32 1592.79 1640.23 1660.58 1585.18C1728.37 1530.14 1771.43 1444.1 1771.39 1356.29C1771.35 1268.49 1726.83 1181.02 1654 1133.04C1587.37 1089.27 1492.02 1076.78 1425.35 1126.86C1391.62 1152.09 1369.17 1189.56 1335.53 1214.96C1332.78 1216.98 1330.07 1218.91 1327.32 1220.85Z" fill="black"/>
<path opacity="0.1" d="M1327.32 1220.85C1291.85 1245.74 1251.87 1262.9 1222.26 1296.33C1166.88 1358.61 1165.59 1458.9 1209.06 1530.14C1252.54 1601.37 1333.4 1644.22 1415.81 1654.06C1502.18 1664.32 1592.79 1640.23 1660.58 1585.18C1728.37 1530.14 1771.43 1444.1 1771.39 1356.29C1771.35 1268.49 1726.83 1181.02 1654 1133.04C1587.37 1089.27 1492.02 1076.78 1425.35 1126.86C1391.62 1152.09 1369.17 1189.56 1335.53 1214.96C1332.78 1216.98 1330.07 1218.91 1327.32 1220.85Z" fill="white"/>
<path opacity="0.1" d="M1341.77 1585.94L1342.02 1584.17C1344.93 1564.72 1353.8 1546.67 1367.37 1532.55C1380.95 1518.43 1398.55 1508.96 1417.73 1505.45C1451.99 1498.84 1484.81 1486.14 1514.67 1467.94C1535.86 1455.03 1555.85 1439.18 1579.63 1432.15C1602.76 1425.48 1627.45 1426.96 1649.63 1436.36C1629.68 1415.33 1595.49 1405.83 1568.05 1415.33C1587 1385.9 1603.66 1354.53 1610.19 1320.17C1616.73 1285.81 1612.11 1248.14 1591.58 1219.96C1582.83 1207.97 1571.57 1198.08 1558.59 1191.01C1545.61 1183.93 1531.24 1179.85 1516.51 1179.04C1501.78 1178.24 1487.06 1180.74 1473.4 1186.36C1459.74 1191.98 1447.48 1200.58 1437.51 1211.55C1417.19 1234.01 1405.73 1265.55 1392.41 1292.8C1382.79 1312.39 1372.92 1332.41 1357.1 1347.46C1333.28 1369.96 1299.01 1378.08 1274.31 1399.61C1246.29 1424.04 1234.21 1463.06 1234.09 1500.53C1234.55 1525.75 1238.19 1550.8 1244.91 1575.09C1273.88 1603 1308.42 1624.32 1346.23 1637.62C1340.73 1620.99 1339.2 1603.28 1341.77 1585.94Z" fill="black"/>
<g opacity="0.2">
<path d="M1724.96 1344.22C1723.82 1283.59 1701.45 1225.32 1661.81 1179.76C1622.17 1134.2 1567.82 1104.3 1508.42 1095.36C1500.18 1096.21 1492 1097.62 1483.94 1099.57C1546.41 1102.91 1605.31 1130.01 1648.78 1175.44C1692.26 1220.86 1717.08 1281.23 1718.25 1344.39C1719.84 1426.14 1680.28 1509.45 1612.36 1567.27C1559.14 1612.6 1488.43 1642.62 1410.73 1653.43L1415.73 1654.1C1422.68 1654.9 1429.72 1655.49 1436.55 1655.87C1505.55 1642.37 1568.09 1613.61 1616.44 1572.44C1686.11 1513.27 1726.58 1427.99 1724.96 1344.22Z" fill="white"/>
</g>
<path d="M1251.33 1558.65C1253.82 1572.1 1255.21 1585.75 1255.49 1599.44L1265.07 1595.78C1269.61 1594.05 1274.55 1593.7 1279.28 1594.79C1284.01 1595.87 1288.32 1598.34 1291.68 1601.88L1292.18 1602.38C1293.89 1604.19 1296.22 1605.27 1298.69 1605.39C1301.17 1605.5 1303.59 1604.65 1305.46 1603.01C1306.46 1602.13 1307.28 1601.06 1307.85 1599.85C1308.42 1598.64 1308.74 1597.33 1308.79 1595.99L1310.08 1554.78L1251.33 1558.65Z" fill="#FFA8A7"/>
<path d="M1288.31 1711.5C1268.44 1732.99 1231.84 1751.79 1205.23 1733.46L1208.19 1740.31C1234.8 1758.6 1271.4 1739.85 1291.47 1718.36C1311.54 1696.87 1298.47 1681.98 1316.46 1662.93C1323.22 1656.42 1328.51 1648.5 1331.95 1639.72C1331.15 1637.7 1330.36 1635.01 1329.45 1631.94C1325.58 1640.89 1320.18 1649.07 1313.5 1656.12C1295.3 1675.34 1308.21 1690.23 1288.31 1711.5Z" fill="#F5F5F5"/>
<path d="M1319.37 1609.66C1316.32 1605.25 1314.18 1600.28 1313.08 1595.02C1312.9 1593.8 1312.46 1592.63 1311.79 1591.59C1311.11 1590.56 1310.22 1589.69 1309.17 1589.05L1308.96 1595.99C1308.9 1597.91 1308.27 1599.77 1307.16 1601.33C1306.06 1602.9 1304.52 1604.09 1302.74 1604.78C1300.96 1605.46 1299.02 1605.6 1297.16 1605.17C1295.3 1604.74 1293.61 1603.77 1292.3 1602.38L1291.8 1601.88C1288.45 1598.34 1284.14 1595.87 1279.41 1594.79C1274.68 1593.7 1269.73 1594.05 1265.19 1595.78L1255.45 1599.48C1254 1600.03 1252.76 1601.03 1251.9 1602.32C1251.03 1603.62 1250.59 1605.15 1250.62 1606.71C1251.24 1634.89 1238.13 1672.27 1224.55 1692.83C1210.52 1698.72 1198.36 1718.06 1204.56 1732.19L1205.19 1733.62C1231.8 1751.96 1268.4 1733.16 1288.26 1711.67C1308.13 1690.18 1295.26 1675.34 1313.25 1656.29C1319.93 1649.24 1325.33 1641.05 1329.2 1632.11C1326.96 1624.21 1323.65 1616.65 1319.37 1609.66Z" fill="#455A64"/>
<path d="M1280.44 1650.32C1281.24 1650.72 1282.16 1650.78 1283.01 1650.5C1283.86 1650.21 1284.56 1649.61 1284.97 1648.81C1285.39 1648.02 1285.47 1647.1 1285.22 1646.25C1284.96 1645.4 1284.38 1644.68 1283.6 1644.26C1277.77 1640.94 1271.18 1639.19 1264.49 1639.19C1257.79 1639.19 1251.21 1640.94 1245.37 1644.26C1244.79 1646.49 1244.17 1648.68 1243.5 1650.87C1249.08 1647.56 1255.42 1645.77 1261.9 1645.68C1268.37 1645.58 1274.76 1647.18 1280.44 1650.32Z" fill="white"/>
<path d="M1285.35 1635.1C1286.14 1635.42 1287.01 1635.43 1287.81 1635.13C1288.61 1634.83 1289.26 1634.24 1289.65 1633.48C1290.04 1632.72 1290.14 1631.84 1289.92 1631.01C1289.7 1630.18 1289.19 1629.46 1288.47 1629C1282.37 1625.64 1275.52 1623.9 1268.57 1623.96C1261.61 1624.02 1254.79 1625.87 1248.75 1629.34C1248.33 1631.65 1247.87 1633.92 1247.37 1636.23C1258.95 1630.05 1270.65 1627.61 1285.35 1635.1Z" fill="white"/>
<path d="M1275.06 1665.5C1275.87 1665.89 1276.8 1665.95 1277.65 1665.66C1278.5 1665.37 1279.2 1664.75 1279.6 1663.94C1280 1663.15 1280.08 1662.23 1279.81 1661.38C1279.55 1660.53 1278.96 1659.82 1278.19 1659.4C1272.48 1656.14 1266.05 1654.39 1259.5 1654.32C1252.94 1654.26 1246.48 1655.87 1240.71 1659.02C1239.88 1661.42 1238.96 1663.73 1238.04 1666.05C1243.64 1662.73 1249.99 1660.93 1256.48 1660.83C1262.97 1660.74 1269.37 1662.35 1275.06 1665.5Z" fill="white"/>
<path d="M1224.59 1692.83C1210.56 1698.72 1198.4 1718.06 1204.61 1732.19L1205.23 1733.62C1231.42 1751.66 1267.32 1733.62 1287.39 1712.6C1270.65 1679.5 1235.67 1687.75 1224.59 1692.83Z" fill="white"/>
<path d="M1269.19 1680.3C1269.98 1680.62 1270.86 1680.63 1271.65 1680.33C1272.45 1680.04 1273.11 1679.45 1273.5 1678.69C1273.89 1677.92 1273.98 1677.04 1273.76 1676.21C1273.54 1675.39 1273.03 1674.67 1272.32 1674.2C1266.61 1670.95 1260.18 1669.21 1253.62 1669.15C1247.06 1669.09 1240.6 1670.71 1234.84 1673.87C1233.63 1676.48 1232.42 1679 1231.17 1681.44C1242.79 1675.26 1254.49 1672.77 1269.19 1680.3Z" fill="white"/>
<path d="M1209.52 1640.52C1206.42 1653.87 1202.24 1666.93 1197.03 1679.59L1207.23 1680.18C1212.07 1680.47 1216.73 1682.18 1220.62 1685.1C1224.52 1688.02 1227.49 1692.02 1229.17 1696.62V1697.25C1230.03 1699.61 1231.74 1701.54 1233.96 1702.66C1236.19 1703.78 1238.75 1704 1241.13 1703.26C1242.39 1702.85 1243.55 1702.19 1244.55 1701.32C1245.56 1700.44 1246.37 1699.37 1246.96 1698.17L1264.57 1661L1209.52 1640.52Z" fill="#FFA8A7"/>
<path d="M1182.2 1795.61C1155.43 1807.17 1114.41 1809.44 1097.42 1781.81V1789.3C1114.41 1816.89 1155.43 1814.53 1182.2 1803.09C1208.98 1791.65 1203.02 1772.69 1227.09 1762.56C1235.88 1759.34 1243.87 1754.24 1250.54 1747.63C1250.54 1745.4 1250.99 1742.66 1251.37 1739.47C1244.27 1746.09 1236.04 1751.38 1227.09 1755.07C1203.11 1765.2 1208.98 1784.09 1182.2 1795.61Z" fill="#F5F5F5"/>
<path d="M1251.37 1714.95C1250.28 1709.68 1250.28 1704.24 1251.37 1698.97C1251.7 1697.78 1251.76 1696.53 1251.55 1695.3C1251.34 1694.08 1250.87 1692.92 1250.16 1691.91L1247.21 1698.17C1246.62 1699.37 1245.81 1700.44 1244.8 1701.32C1243.8 1702.19 1242.64 1702.85 1241.38 1703.26C1239 1704 1236.44 1703.78 1234.21 1702.66C1231.99 1701.54 1230.28 1699.61 1229.42 1697.25V1696.62C1227.74 1692.02 1224.77 1688.02 1220.87 1685.1C1216.98 1682.18 1212.32 1680.47 1207.48 1680.18L1197.11 1679.59C1195.57 1679.5 1194.03 1679.9 1192.72 1680.73C1191.41 1681.55 1190.38 1682.77 1189.78 1684.21C1179.08 1710.24 1152.3 1739.17 1131.48 1752.42C1116.28 1752.04 1097.46 1764.78 1097.46 1780.3V1781.81C1114.45 1809.44 1155.47 1807.05 1182.24 1795.61C1209.02 1784.17 1203.07 1765.2 1227.13 1755.07C1236.09 1751.38 1244.31 1746.09 1251.41 1739.47C1252.53 1731.34 1252.52 1723.08 1251.37 1714.95Z" fill="#455A64"/>
<path d="M1199.53 1736.27C1200.1 1736.92 1200.89 1737.31 1201.74 1737.39C1202.6 1737.46 1203.45 1737.2 1204.12 1736.67C1204.79 1736.13 1205.24 1735.36 1205.37 1734.51C1205.5 1733.65 1205.3 1732.78 1204.81 1732.07C1200.8 1726.66 1195.47 1722.39 1189.34 1719.67C1183.22 1716.95 1176.5 1715.88 1169.84 1716.55C1168.42 1718.37 1166.96 1720.14 1165.46 1721.85C1171.89 1721.08 1178.41 1722 1184.38 1724.53C1190.35 1727.06 1195.56 1731.1 1199.53 1736.27Z" fill="white"/>
<path d="M1210.1 1724.33C1210.67 1725.03 1211.49 1725.47 1212.38 1725.55C1213.27 1725.64 1214.16 1725.37 1214.85 1724.79C1215.53 1724.23 1215.97 1723.41 1216.07 1722.53C1216.17 1721.64 1215.93 1720.75 1215.39 1720.04C1211.16 1714.47 1205.58 1710.08 1199.2 1707.3C1192.81 1704.52 1185.83 1703.43 1178.91 1704.15C1177.62 1706.08 1176.25 1708.01 1174.75 1709.91C1187.95 1708.98 1199.65 1711.5 1210.1 1724.33Z" fill="white"/>
<path d="M1188.57 1747.96C1189.15 1748.61 1189.94 1749 1190.79 1749.08C1191.65 1749.15 1192.49 1748.89 1193.17 1748.36C1193.84 1747.83 1194.29 1747.05 1194.41 1746.2C1194.54 1745.34 1194.35 1744.47 1193.86 1743.76C1189.95 1738.47 1184.77 1734.27 1178.82 1731.54C1172.86 1728.81 1166.32 1727.65 1159.8 1728.16C1158.09 1730.01 1156.34 1731.77 1154.55 1733.5C1160.98 1732.74 1167.49 1733.67 1173.45 1736.21C1179.41 1738.74 1184.62 1742.79 1188.57 1747.96Z" fill="white"/>
<path d="M1131.44 1752.42C1116.24 1752.04 1097.42 1764.78 1097.42 1780.3V1781.81C1114.08 1809.02 1154.18 1807.05 1180.95 1796.11C1178.91 1758.98 1143.6 1752.25 1131.44 1752.42Z" fill="white"/>
<path d="M1177.25 1759.11C1177.83 1759.79 1178.65 1760.21 1179.54 1760.29C1180.42 1760.37 1181.31 1760.1 1181.99 1759.53C1182.68 1758.97 1183.13 1758.17 1183.23 1757.29C1183.33 1756.4 1183.08 1755.52 1182.54 1754.82C1178.62 1749.52 1173.44 1745.31 1167.47 1742.58C1161.51 1739.85 1154.96 1738.69 1148.43 1739.22C1146.31 1741.15 1144.27 1742.96 1142.06 1744.64C1155.14 1743.72 1166.8 1746.24 1177.25 1759.11Z" fill="white"/>
<path d="M1366.84 1288.8L1232.8 1364.2C1220.67 1371.06 1210.98 1381.57 1205.06 1394.27C1199.15 1406.96 1197.32 1421.21 1199.82 1435.01L1225.84 1576.52L1204.52 1644.94C1222.93 1669.87 1265.15 1671.13 1265.15 1671.13C1288.72 1623.41 1306.04 1603.14 1319.29 1563.15C1332.53 1523.15 1341.61 1495.53 1341.61 1495.53L1452.91 1464.83C1478.37 1457.85 1501.17 1443.31 1518.36 1423.11C1535.55 1402.91 1546.35 1377.96 1549.36 1351.5C1551.27 1334.47 1551.35 1322.86 1551.35 1322.86L1366.84 1288.8Z" fill="#148BCC"/>
<path opacity="0.3" d="M1366.84 1288.8L1232.8 1364.2C1220.67 1371.06 1210.98 1381.57 1205.06 1394.27C1199.15 1406.96 1197.32 1421.21 1199.82 1435.01L1225.84 1576.52L1204.52 1644.94C1222.93 1669.87 1265.15 1671.13 1265.15 1671.13C1288.72 1623.41 1306.04 1603.14 1319.29 1563.15C1332.53 1523.15 1341.61 1495.53 1341.61 1495.53L1452.91 1464.83C1478.37 1457.85 1501.17 1443.31 1518.36 1423.11C1535.55 1402.91 1546.35 1377.96 1549.36 1351.5C1551.27 1334.47 1551.35 1322.86 1551.35 1322.86L1366.84 1288.8Z" fill="black"/>
<path opacity="0.1" d="M1366.84 1288.8L1232.8 1364.2C1220.67 1371.06 1210.98 1381.57 1205.06 1394.27C1199.15 1406.96 1197.32 1421.21 1199.82 1435.01L1225.84 1576.52L1204.52 1644.94C1222.93 1669.87 1265.15 1671.13 1265.15 1671.13C1288.72 1623.41 1306.04 1603.14 1319.29 1563.15C1332.53 1523.15 1341.61 1495.53 1341.61 1495.53L1452.91 1464.83C1478.37 1457.85 1501.17 1443.31 1518.36 1423.11C1535.55 1402.91 1546.35 1377.96 1549.36 1351.5C1551.27 1334.47 1551.35 1322.86 1551.35 1322.86L1366.84 1288.8Z" fill="white"/>
<path opacity="0.2" d="M1367.84 1326.82C1367.85 1341.92 1373.16 1356.54 1382.83 1368.07L1288.26 1427.87C1274.39 1436.63 1264.11 1450.16 1259.32 1465.96L1226.01 1576.52L1256.2 1453.39C1259.68 1439.23 1268.51 1427 1280.81 1419.33L1368.26 1364.66C1359.01 1342.29 1367.84 1326.82 1367.84 1326.82Z" fill="black"/>
<path d="M1278.14 1133.38L1248 1160.88C1228.72 1136.03 1202.86 1119.25 1180.25 1084.43C1173.75 1076.02 1174.42 1059.49 1170 1051C1166.5 1044.35 1160.42 1034.18 1157.88 1028.75C1157.66 1028.24 1157.33 1027.79 1156.91 1027.43C1156.49 1027.07 1156 1026.81 1155.47 1026.67C1154.93 1026.53 1154.38 1026.51 1153.84 1026.62C1153.3 1026.72 1152.79 1026.95 1152.35 1027.28C1146.14 1032.07 1149.51 1043.26 1152.85 1054.99C1156.8 1068.87 1136.19 1050.07 1133.27 1046.88C1120.12 1034.51 1108.83 1004.19 1099.96 1007.22C1091.09 1010.25 1098.09 1025.35 1098.09 1025.35C1089.76 1027.11 1092.97 1040.4 1092.97 1040.4C1088.09 1049.11 1089.47 1062.52 1099.5 1075.01C1106.79 1084.05 1126.49 1096.5 1136.73 1102.6C1140.98 1105.16 1144.62 1108.63 1147.39 1112.77L1211.77 1209.74C1214.7 1214.13 1218.47 1217.87 1222.88 1220.73C1227.28 1223.6 1232.21 1225.53 1237.37 1226.42C1242.53 1227.3 1247.82 1227.12 1252.91 1225.88C1258 1224.64 1262.79 1222.37 1266.98 1219.21L1310.83 1186.07L1278.14 1133.38Z" fill="#FFA8A7"/>
<path opacity="0.3" d="M1278.14 1133.38L1248 1160.88C1228.72 1136.03 1202.86 1119.25 1180.25 1084.43C1173.75 1076.02 1174.42 1059.49 1170 1051C1166.5 1044.35 1160.42 1034.18 1157.88 1028.75C1157.66 1028.24 1157.33 1027.79 1156.91 1027.43C1156.49 1027.07 1156 1026.81 1155.47 1026.67C1154.93 1026.53 1154.38 1026.51 1153.84 1026.62C1153.3 1026.72 1152.79 1026.95 1152.35 1027.28C1146.14 1032.07 1149.51 1043.26 1152.85 1054.99C1156.8 1068.87 1136.19 1050.07 1133.27 1046.88C1120.12 1034.51 1108.83 1004.19 1099.96 1007.22C1091.09 1010.25 1098.09 1025.35 1098.09 1025.35C1089.76 1027.11 1092.97 1040.4 1092.97 1040.4C1088.09 1049.11 1089.47 1062.52 1099.5 1075.01C1106.79 1084.05 1126.49 1096.5 1136.73 1102.6C1140.98 1105.16 1144.62 1108.63 1147.39 1112.77L1211.77 1209.74C1214.7 1214.13 1218.47 1217.87 1222.88 1220.73C1227.28 1223.6 1232.21 1225.53 1237.37 1226.42C1242.53 1227.3 1247.82 1227.12 1252.91 1225.88C1258 1224.64 1262.79 1222.37 1266.98 1219.21L1310.83 1186.07L1278.14 1133.38Z" fill="black"/>
<path d="M1375.71 1057.22C1342.98 1055.79 1299.55 1104.82 1271.61 1134.22C1277 1157.47 1289.86 1178.27 1308.17 1193.39C1331.63 1176.7 1354.18 1158.75 1375.71 1139.6V1057.22Z" fill="#455A64"/>
<path opacity="0.3" d="M1375.71 1057.22C1342.98 1055.79 1299.55 1104.82 1271.61 1134.22C1277 1157.47 1289.86 1178.27 1308.17 1193.39C1331.63 1176.7 1354.18 1158.75 1375.71 1139.6V1057.22Z" fill="white"/>
<path d="M1553.6 1333.42C1529.83 1356.5 1415.65 1360.75 1357.39 1304.74C1362.97 1265.17 1361.09 1222.82 1357.39 1180.94C1353.68 1139.05 1329.41 1065.76 1375.71 1057.22C1437.55 1045.03 1477.94 1045.99 1519.29 1069.5C1563.39 1143.81 1557.39 1254.82 1553.6 1333.42Z" fill="#455A64"/>
<path d="M1553.6 1333.42C1529.83 1356.5 1415.65 1360.75 1357.39 1304.74C1362.97 1265.17 1361.09 1222.82 1357.39 1180.94C1353.68 1139.05 1329.41 1065.76 1375.71 1057.22C1437.55 1045.03 1477.94 1045.99 1519.29 1069.5C1563.39 1143.81 1557.39 1254.82 1553.6 1333.42Z" fill="#455A64"/>
<path opacity="0.2" d="M1553.6 1333.42C1529.83 1356.5 1415.65 1360.75 1357.39 1304.74C1362.97 1265.17 1361.09 1222.82 1357.39 1180.94C1353.68 1139.05 1329.41 1065.76 1375.71 1057.22C1437.55 1045.03 1477.94 1045.99 1519.29 1069.5C1563.39 1143.81 1557.39 1254.82 1553.6 1333.42Z" fill="white"/>
<path d="M1186.78 1346.66L1344.02 1438.17L1344.6 1438.46H1344.98L1346.19 1438.84H1347.06H1347.64H1349.19C1349.73 1438.88 1350.27 1438.88 1350.81 1438.84H1351.85L1353.1 1438.5C1353.48 1438.39 1353.84 1438.24 1354.18 1438.04L1404.9 1408.73L1242.5 1314.07L1186.78 1346.66Z" fill="#E0E0E0"/>
<path d="M1336.36 1321.47L1306.79 1339.05C1306.33 1339.31 1305.95 1339.69 1305.69 1340.15C1305.42 1340.61 1305.28 1341.13 1305.28 1341.66C1305.28 1342.19 1305.42 1342.71 1305.69 1343.17C1305.95 1343.63 1306.33 1344.01 1306.79 1344.27L1351.02 1370.04C1351.77 1370.49 1352.62 1370.72 1353.5 1370.72C1354.37 1370.72 1355.22 1370.49 1355.97 1370.04L1385.54 1352.51C1385.99 1352.24 1386.36 1351.86 1386.62 1351.4C1386.88 1350.95 1387.01 1350.43 1387.01 1349.9C1387.01 1349.38 1386.88 1348.86 1386.62 1348.4C1386.36 1347.94 1385.99 1347.56 1385.54 1347.29L1341.31 1321.47C1340.56 1321.03 1339.71 1320.8 1338.84 1320.8C1337.97 1320.8 1337.11 1321.03 1336.36 1321.47Z" fill="#E0E0E0"/>
<path opacity="0.4" d="M1186.78 1346.66L1344.02 1438.17L1344.6 1438.46H1344.98L1346.19 1438.84H1347.06H1347.64H1349.19C1349.73 1438.88 1350.27 1438.88 1350.81 1438.84H1351.85L1353.1 1438.5C1353.48 1438.39 1353.84 1438.24 1354.18 1438.04L1404.9 1408.73L1242.5 1314.07L1186.78 1346.66Z" fill="black"/>
<path opacity="0.4" d="M1336.36 1321.47L1306.79 1339.05C1306.33 1339.31 1305.95 1339.69 1305.69 1340.15C1305.42 1340.61 1305.28 1341.13 1305.28 1341.66C1305.28 1342.19 1305.42 1342.71 1305.69 1343.17C1305.95 1343.63 1306.33 1344.01 1306.79 1344.27L1351.02 1370.04C1351.77 1370.49 1352.62 1370.72 1353.5 1370.72C1354.37 1370.72 1355.22 1370.49 1355.97 1370.04L1385.54 1352.51C1385.99 1352.24 1386.36 1351.86 1386.62 1351.4C1386.88 1350.95 1387.01 1350.43 1387.01 1349.9C1387.01 1349.38 1386.88 1348.86 1386.62 1348.4C1386.36 1347.94 1385.99 1347.56 1385.54 1347.29L1341.31 1321.47C1340.56 1321.03 1339.71 1320.8 1338.84 1320.8C1337.97 1320.8 1337.11 1321.03 1336.36 1321.47Z" fill="black"/>
<path d="M1348.19 1441.07L1331.53 1333.5C1331.08 1330.58 1329.99 1327.8 1328.34 1325.37C1326.69 1322.93 1324.52 1320.89 1321.99 1319.41L1158.97 1223.7C1158.34 1223.35 1157.64 1223.14 1156.92 1223.08C1156.2 1223.03 1155.48 1223.14 1154.8 1223.41L1150.93 1225.34L1152.22 1225.85C1151.79 1226.75 1151.64 1227.76 1151.8 1228.75L1168.46 1336.36C1168.91 1339.27 1170 1342.04 1171.65 1344.47C1173.3 1346.9 1175.47 1348.93 1178 1350.41L1340.86 1446.12C1341.2 1446.31 1341.56 1446.46 1341.94 1446.58V1448.13L1345.69 1446.28C1346.6 1445.79 1347.33 1445.02 1347.78 1444.09C1348.23 1443.15 1348.37 1442.09 1348.19 1441.07Z" fill="#E0E0E0"/>
<path opacity="0.3" d="M1348.19 1441.07L1331.53 1333.5C1331.08 1330.58 1329.99 1327.8 1328.34 1325.37C1326.69 1322.93 1324.52 1320.89 1321.99 1319.41L1158.97 1223.7C1158.34 1223.35 1157.64 1223.14 1156.92 1223.08C1156.2 1223.03 1155.48 1223.14 1154.8 1223.41L1150.93 1225.34L1152.22 1225.85C1151.79 1226.75 1151.64 1227.76 1151.8 1228.75L1168.46 1336.36C1168.91 1339.27 1170 1342.04 1171.65 1344.47C1173.3 1346.9 1175.47 1348.93 1178 1350.41L1340.86 1446.12C1341.2 1446.31 1341.56 1446.46 1341.94 1446.58V1448.13L1345.69 1446.28C1346.6 1445.79 1347.33 1445.02 1347.78 1444.09C1348.23 1443.15 1348.37 1442.09 1348.19 1441.07Z" fill="black"/>
<path d="M1318.62 1321.05L1155.68 1225.39C1154.87 1224.91 1153.95 1224.68 1153.02 1224.71C1152.09 1224.75 1151.18 1225.05 1150.41 1225.58C1149.64 1226.11 1149.04 1226.86 1148.68 1227.73C1148.31 1228.59 1148.2 1229.55 1148.35 1230.47L1165 1338.04C1165.48 1340.96 1166.58 1343.73 1168.24 1346.17C1169.89 1348.6 1172.06 1350.64 1174.58 1352.13L1337.53 1447.8C1338.33 1448.27 1339.25 1448.51 1340.19 1448.47C1341.12 1448.44 1342.02 1448.14 1342.79 1447.6C1343.56 1447.07 1344.16 1446.33 1344.53 1445.46C1344.89 1444.59 1345.01 1443.64 1344.85 1442.71L1328.2 1335.14C1327.74 1332.22 1326.64 1329.45 1324.98 1327.01C1323.32 1324.57 1321.15 1322.54 1318.62 1321.05Z" fill="#E0E0E0"/>
<path d="M1239.67 1323.83C1243.8 1326.45 1247.36 1329.88 1250.14 1333.93C1252.91 1337.98 1254.85 1342.55 1255.83 1347.38C1256.91 1355.79 1251.41 1358.9 1243.33 1354.28C1239.2 1351.67 1235.64 1348.24 1232.87 1344.2C1230.09 1340.15 1228.15 1335.59 1227.18 1330.77C1226.26 1322.36 1231.8 1319.29 1239.67 1323.83Z" fill="white"/>
<path d="M1590.91 1254.57L1573.42 1188.89L1512.09 1202.68L1526.79 1253.6L1436.88 1318.07L1406.65 1330.94C1398.64 1334.34 1391.72 1339.9 1386.62 1347L1361.97 1381.48C1361.76 1381.94 1361.67 1382.45 1361.72 1382.95C1361.85 1383.87 1362.25 1384.72 1362.86 1385.42C1363.47 1386.11 1364.26 1386.6 1365.15 1386.84C1366.03 1387.08 1366.97 1387.06 1367.84 1386.77C1368.71 1386.49 1369.48 1385.95 1370.05 1385.23C1375.5 1378.92 1380.08 1373.07 1385.79 1367.56L1371.26 1387.37C1370.81 1388.04 1370.5 1388.79 1370.35 1389.58C1370.2 1390.37 1370.21 1391.19 1370.38 1391.97C1370.55 1392.76 1370.88 1393.5 1371.35 1394.16C1371.81 1394.81 1372.4 1395.36 1373.09 1395.78C1374.73 1396.77 1376.5 1397.55 1378.33 1398.09C1381.89 1399.01 1385.62 1399.01 1389.18 1398.11C1392.74 1397.21 1396.03 1395.42 1398.74 1392.92L1417.77 1375.3L1423.02 1373.45C1438.39 1367.97 1451.74 1357.86 1461.24 1344.48L1566.64 1303.14C1575.91 1299.5 1583.52 1292.53 1588 1283.56C1592.49 1274.59 1593.52 1264.26 1590.91 1254.57Z" fill="#FFA8A7"/>
<path opacity="0.3" d="M1590.91 1254.57L1573.42 1188.89L1512.09 1202.68L1526.79 1253.6L1436.88 1318.07L1406.65 1330.94C1398.64 1334.34 1391.72 1339.9 1386.62 1347L1361.97 1381.48C1361.76 1381.94 1361.67 1382.45 1361.72 1382.95C1361.85 1383.87 1362.25 1384.72 1362.86 1385.42C1363.47 1386.11 1364.26 1386.6 1365.15 1386.84C1366.03 1387.08 1366.97 1387.06 1367.84 1386.77C1368.71 1386.49 1369.48 1385.95 1370.05 1385.23C1375.5 1378.92 1380.08 1373.07 1385.79 1367.56L1371.26 1387.37C1370.81 1388.04 1370.5 1388.79 1370.35 1389.58C1370.2 1390.37 1370.21 1391.19 1370.38 1391.97C1370.55 1392.76 1370.88 1393.5 1371.35 1394.16C1371.81 1394.81 1372.4 1395.36 1373.09 1395.78C1374.73 1396.77 1376.5 1397.55 1378.33 1398.09C1381.89 1399.01 1385.62 1399.01 1389.18 1398.11C1392.74 1397.21 1396.03 1395.42 1398.74 1392.92L1417.77 1375.3L1423.02 1373.45C1438.39 1367.97 1451.74 1357.86 1461.24 1344.48L1566.64 1303.14C1575.91 1299.5 1583.52 1292.53 1588 1283.56C1592.49 1274.59 1593.52 1264.26 1590.91 1254.57Z" fill="black"/>
<path d="M1583.04 1197.46L1581.17 1188.76C1558.89 1086.49 1541.11 1079.21 1511.25 1065.21C1482.11 1090.78 1487.06 1134.26 1487.06 1134.26L1513.09 1212.94L1513.88 1215.21C1526 1217.14 1538.38 1216.56 1550.26 1213.51C1562.15 1210.46 1573.31 1205 1583.04 1197.46Z" fill="#455A64"/>
<path opacity="0.3" d="M1583.04 1197.46L1581.17 1188.76C1558.89 1086.49 1541.11 1079.21 1511.25 1065.21C1482.11 1090.78 1487.06 1134.26 1487.06 1134.26L1513.09 1212.94L1513.88 1215.21C1526 1217.14 1538.38 1216.56 1550.26 1213.51C1562.15 1210.46 1573.31 1205 1583.04 1197.46Z" fill="white"/>
<path d="M1469.7 983.379C1475.91 964.838 1479.18 945.424 1479.4 925.852C1479.4 915.423 1478.36 904.027 1471.07 896.416C1462.37 887.417 1447.46 887.501 1436.34 893.178C1425.22 898.855 1417.06 908.905 1409.23 918.661C1413.09 935.692 1418.84 952.226 1426.39 967.946C1430.3 975.599 1435.05 983.379 1442.63 987.29C1450.21 991.201 1462.95 988.678 1469.7 983.379Z" fill="#455A64"/>
<path d="M1414.69 1103.52C1399.74 1113.07 1380.33 1095.36 1397.7 1069.54C1397.81 1069.41 1397.88 1069.25 1397.91 1069.08V1026.06L1454.29 994.649L1455.58 1052.13C1449.54 1069.92 1427.68 1095.19 1414.69 1103.52Z" fill="#FFA8A7"/>
<path opacity="0.3" d="M1414.69 1103.52C1399.74 1113.07 1380.33 1095.36 1397.7 1069.54C1397.81 1069.41 1397.88 1069.25 1397.91 1069.08V1026.06L1454.29 994.649L1455.58 1052.13C1449.54 1069.92 1427.68 1095.19 1414.69 1103.52Z" fill="black"/>
<path opacity="0.2" d="M1426.93 1039.81C1417.52 1044.4 1405.78 1049.02 1397.78 1052.01V1026.06L1454.16 994.649C1453.83 1023.12 1442.59 1032.16 1426.93 1039.81Z" fill="black"/>
<path d="M1348.69 915.718C1346.6 944.054 1346.99 972.522 1349.85 1000.79C1350.43 1006.6 1352.2 1012.23 1355.05 1017.31C1357.9 1022.39 1361.77 1026.82 1366.41 1030.31C1371.05 1033.8 1376.35 1036.27 1381.99 1037.58C1387.63 1038.88 1393.48 1038.98 1399.16 1037.88C1408.4 1035.94 1417.23 1033.67 1424.72 1031.7C1431.38 1029.87 1437.44 1026.27 1442.24 1021.27C1447.05 1016.26 1450.43 1010.05 1452.04 1003.27L1454.12 994.523C1456.6 997.658 1460.05 999.86 1463.92 1000.78C1467.78 1001.69 1471.84 1001.27 1475.44 999.569C1479.05 997.865 1482.18 995.275 1484.55 992.036C1486.91 988.796 1488.43 985.011 1488.98 981.024C1489.69 977.094 1489.35 973.041 1487.98 969.292C1486.54 965.571 1483.74 962.557 1480.15 960.881C1476.84 959.731 1473.27 959.634 1469.91 960.605C1466.55 961.575 1463.57 963.566 1461.37 966.306C1457.04 971.875 1454.4 978.596 1453.79 985.65C1443.4 973.843 1438.07 958.358 1438.96 942.589C1433.7 942.032 1428.83 939.513 1425.31 935.524C1423.84 933.539 1422.77 931.28 1422.17 928.876C1421.57 926.473 1421.45 923.973 1421.81 921.521C1399.78 932.665 1369.38 929.637 1348.69 915.718Z" fill="#FFA8A7"/>
<path opacity="0.3" d="M1348.69 915.718C1346.6 944.054 1346.99 972.522 1349.85 1000.79C1350.43 1006.6 1352.2 1012.23 1355.05 1017.31C1357.9 1022.39 1361.77 1026.82 1366.41 1030.31C1371.05 1033.8 1376.35 1036.27 1381.99 1037.58C1387.63 1038.88 1393.48 1038.98 1399.16 1037.88C1408.4 1035.94 1417.23 1033.67 1424.72 1031.7C1431.38 1029.87 1437.44 1026.27 1442.24 1021.27C1447.05 1016.26 1450.43 1010.05 1452.04 1003.27L1454.12 994.523C1456.6 997.658 1460.05 999.86 1463.92 1000.78C1467.78 1001.69 1471.84 1001.27 1475.44 999.569C1479.05 997.865 1482.18 995.275 1484.55 992.036C1486.91 988.796 1488.43 985.011 1488.98 981.024C1489.69 977.094 1489.35 973.041 1487.98 969.292C1486.54 965.571 1483.74 962.557 1480.15 960.881C1476.84 959.731 1473.27 959.634 1469.91 960.605C1466.55 961.575 1463.57 963.566 1461.37 966.306C1457.04 971.875 1454.4 978.596 1453.79 985.65C1443.4 973.843 1438.07 958.358 1438.96 942.589C1433.7 942.032 1428.83 939.513 1425.31 935.524C1423.84 933.539 1422.77 931.28 1422.17 928.876C1421.57 926.473 1421.45 923.973 1421.81 921.521C1399.78 932.665 1369.38 929.637 1348.69 915.718Z" fill="black"/>
<path d="M1388.04 963.32L1368.47 987.29L1386.45 993.682L1388.04 963.32Z" fill="#F28F8F"/>
<path opacity="0.3" d="M1388.04 963.32L1368.47 987.29L1386.45 993.682L1388.04 963.32Z" fill="black"/>
<path d="M1402.86 1005.58L1387.75 1010.25C1388.7 1012.05 1390.22 1013.49 1392.06 1014.35C1393.9 1015.21 1395.97 1015.44 1397.95 1015C1399.72 1014.25 1401.17 1012.89 1402.07 1011.18C1402.96 1009.46 1403.24 1007.48 1402.86 1005.58Z" fill="#F28F8F"/>
<path opacity="0.4" d="M1402.86 1005.58L1387.75 1010.25C1388.7 1012.05 1390.22 1013.49 1392.06 1014.35C1393.9 1015.21 1395.97 1015.44 1397.95 1015C1399.72 1014.25 1401.17 1012.89 1402.07 1011.18C1402.96 1009.46 1403.24 1007.48 1402.86 1005.58Z" fill="black"/>
<path d="M1392.99 1014.71C1394.58 1015.28 1396.3 1015.39 1397.95 1015C1399.35 1014.47 1400.56 1013.53 1401.43 1012.3C1402.31 1011.07 1402.8 1009.62 1402.86 1008.11C1400.84 1007.79 1398.78 1008.16 1396.99 1009.16C1395 1010.41 1393.56 1012.4 1392.99 1014.71Z" fill="#F28F8F"/>
<path d="M1414.69 968.577C1414.63 969.647 1414.26 970.676 1413.62 971.534C1412.98 972.391 1412.11 973.038 1411.1 973.393C1410.1 973.749 1409.02 973.796 1407.99 973.53C1406.96 973.264 1406.03 972.696 1405.33 971.897C1404.62 971.099 1404.16 970.107 1404.01 969.045C1403.86 967.984 1404.02 966.901 1404.48 965.934C1404.94 964.967 1405.67 964.158 1406.58 963.611C1407.49 963.063 1408.55 962.801 1409.61 962.858C1410.31 962.896 1411 963.073 1411.64 963.381C1412.28 963.689 1412.85 964.121 1413.32 964.653C1413.79 965.184 1414.16 965.804 1414.39 966.477C1414.63 967.151 1414.73 967.864 1414.69 968.577Z" fill="#263238"/>
<path d="M1369.71 964.372C1369.66 965.445 1369.3 966.478 1368.67 967.341C1368.03 968.204 1367.16 968.858 1366.16 969.22C1365.16 969.581 1364.07 969.635 1363.04 969.373C1362.01 969.111 1361.08 968.546 1360.36 967.749C1359.65 966.952 1359.19 965.959 1359.03 964.896C1358.88 963.834 1359.04 962.749 1359.5 961.779C1359.96 960.809 1360.69 959.999 1361.6 959.449C1362.52 958.9 1363.57 958.638 1364.63 958.695C1366.05 958.771 1367.38 959.411 1368.33 960.475C1369.29 961.538 1369.78 962.94 1369.71 964.372Z" fill="#263238"/>
<path d="M1365.84 942.547L1353.35 950.369C1352.91 948.847 1352.94 947.226 1353.44 945.722C1353.94 944.219 1354.88 942.906 1356.14 941.958C1357.64 941.107 1359.36 940.711 1361.08 940.815C1362.8 940.919 1364.45 941.521 1365.84 942.547Z" fill="#263238"/>
<path d="M1411.65 944.355L1423.14 953.312C1423.68 951.879 1423.79 950.318 1423.45 948.823C1423.12 947.328 1422.36 945.964 1421.27 944.902C1419.87 943.931 1418.23 943.366 1416.53 943.27C1414.84 943.174 1413.15 943.549 1411.65 944.355Z" fill="#263238"/>
<path d="M1424.39 919.587C1423.75 923.422 1421.94 926.962 1419.23 929.721C1417.83 931.098 1416.17 932.179 1414.36 932.901C1412.54 933.623 1410.6 933.972 1408.65 933.926C1406.68 933.887 1404.76 933.346 1403.05 932.353C1401.35 931.36 1399.92 929.949 1398.91 928.249C1397.48 930.246 1395.55 931.824 1393.31 932.821C1391.08 933.819 1388.63 934.2 1386.2 933.926C1383.66 933.721 1381.2 932.874 1379.07 931.464C1376.93 930.053 1375.17 928.124 1373.96 925.852C1372.32 928.25 1370.01 930.099 1367.33 931.163C1364.64 932.226 1361.7 932.457 1358.89 931.824C1356.15 931.1 1353.7 929.548 1351.86 927.375C1350.02 925.203 1348.88 922.514 1348.6 919.671C1344.04 920.822 1339.21 920.128 1335.15 917.736C1333.15 916.517 1331.51 914.786 1330.38 912.719C1329.25 910.651 1328.69 908.321 1328.74 905.962C1328.87 903.624 1329.76 901.395 1331.26 899.611C1332.77 897.828 1334.8 896.588 1337.07 896.08C1335.74 893.278 1335.36 890.111 1335.99 887.071C1336.63 884.03 1338.23 881.284 1340.57 879.259C1342.94 877.284 1345.9 876.173 1348.97 876.105C1352.05 876.036 1355.06 877.014 1357.51 878.881C1357.57 876.833 1358.2 874.843 1359.33 873.14C1360.45 871.436 1362.03 870.088 1363.88 869.251C1365.77 868.492 1367.83 868.295 1369.82 868.683C1371.82 869.07 1373.66 870.026 1375.13 871.437C1375.51 867.865 1377 864.505 1379.38 861.835C1381.77 859.164 1384.92 857.319 1388.4 856.561C1391.88 855.802 1395.51 856.169 1398.77 857.609C1402.03 859.049 1404.76 861.489 1406.57 864.583C1407.94 862.191 1409.94 860.235 1412.36 858.934C1414.77 857.634 1417.5 857.041 1420.23 857.224C1422.86 857.432 1425.37 858.405 1427.47 860.023C1429.57 861.642 1431.16 863.839 1432.05 866.349C1434.01 863.341 1436.86 861.032 1440.2 859.751C1443.53 858.47 1447.18 858.281 1450.63 859.212C1454.08 860.142 1457.14 862.145 1459.4 864.936C1461.66 867.726 1462.99 871.163 1463.2 874.76C1465.25 873 1467.9 872.105 1470.59 872.262C1473.28 872.418 1475.81 873.614 1477.65 875.601C1479.37 877.698 1480.41 880.281 1480.63 882.998C1480.85 885.715 1480.23 888.433 1478.86 890.781C1477.42 893.079 1475.48 895.009 1473.18 896.417C1470.89 897.826 1468.29 898.675 1465.62 898.897C1466.85 901.988 1466.94 905.428 1465.86 908.578C1464.78 911.729 1462.6 914.378 1459.74 916.035C1456.87 917.692 1453.51 918.245 1450.27 917.591C1447.04 916.938 1444.14 915.122 1442.13 912.48C1442.42 914.758 1441.94 917.067 1440.77 919.035C1439.59 921.004 1437.8 922.516 1435.67 923.329C1433.65 924.102 1431.43 924.152 1429.38 923.471C1427.32 922.79 1425.56 921.419 1424.39 919.587Z" fill="#263238"/>
</svg>
